  0
SECTION
  2
HEADER
  9
$ACADVER
  1
AC1009
  9
$DWGCODEPAGE
  3
ansi_1252
  9
$INSBASE
 10
0.0
 20
0.0
 30
0.0
  9
$EXTMIN
 10
-152.5
 20
-50.00000008797214
 30
0.0
  9
$EXTMAX
 10
152.5
 20
0.0
 30
0.0
  9
$LIMMIN
 10
0.0
 20
0.0
  9
$LIMMAX
 10
0.0
 20
0.0
  9
$ORTHOMODE
 70
     0
  9
$REGENMODE
 70
     1
  9
$FILLMODE
 70
     1
  9
$QTEXTMODE
 70
     0
  9
$MIRRTEXT
 70
     1
  9
$DRAGMODE
 70
     2
  9
$LTSCALE
 40
1.0
  9
$OSMODE
 70
    37
  9
$ATTMODE
 70
     1
  9
$TEXTSIZE
 40
0.2
  9
$TRACEWID
 40
0.05
  9
$TEXTSTYLE
  7
STANDARD
  9
$CLAYER
  8
0
  9
$CELTYPE
  6
BYLAYER
  9
$CECOLOR
 62
   256
  9
$DIMSCALE
 40
1.0
  9
$DIMASZ
 40
0.18
  9
$DIMEXO
 40
0.0625
  9
$DIMDLI
 40
0.38
  9
$DIMRND
 40
0.0
  9
$DIMDLE
 40
0.0
  9
$DIMEXE
 40
0.18
  9
$DIMTP
 40
0.0
  9
$DIMTM
 40
0.0
  9
$DIMTXT
 40
0.18
  9
$DIMCEN
 40
0.09
  9
$DIMTSZ
 40
0.0
  9
$DIMTOL
 70
     0
  9
$DIMLIM
 70
     0
  9
$DIMTIH
 70
     1
  9
$DIMTOH
 70
     1
  9
$DIMSE1
 70
     0
  9
$DIMSE2
 70
     0
  9
$DIMTAD
 70
     0
  9
$DIMZIN
 70
     0
  9
$DIMBLK
  1
VDDIM_DEFAULT
  9
$DIMASO
 70
     1
  9
$DIMSHO
 70
     1
  9
$DIMPOST
  1

  9
$DIMAPOST
  1

  9
$DIMALT
 70
     0
  9
$DIMALTD
 70
     2
  9
$DIMALTF
 40
25.4
  9
$DIMLFAC
 40
1.0
  9
$DIMTOFL
 70
     1
  9
$DIMTVP
 40
0.0
  9
$DIMTIX
 70
     1
  9
$DIMSOXD
 70
     0
  9
$DIMSAH
 70
     0
  9
$DIMBLK1
  1

  9
$DIMBLK2
  1

  9
$DIMSTYLE
  2
STANDARD
  9
$DIMCLRD
 70
     0
  9
$DIMCLRE
 70
     0
  9
$DIMCLRT
 70
     0
  9
$DIMTFAC
 40
1.0
  9
$DIMGAP
 40
0.09
  9
$LUNITS
 70
     2
  9
$LUPREC
 70
     4
  9
$SKETCHINC
 40
0.1
  9
$FILLETRAD
 40
0.5
  9
$AUNITS
 70
     0
  9
$AUPREC
 70
     0
  9
$MENU
  1
.
  9
$ELEVATION
 40
0.0
  9
$PELEVATION
 40
0.0
  9
$THICKNESS
 40
0.0
  9
$LIMCHECK
 70
     0
  9
$BLIPMODE
 70
     0
  9
$CHAMFERA
 40
0.5
  9
$CHAMFERB
 40
0.5
  9
$SKPOLY
 70
     0
  9
$TDCREATE
 40
2458540.481441482
  9
$TDUPDATE
 40
2458540.481441493
  9
$TDINDWG
 40
0.0000000116
  9
$TDUSRTIMER
 40
0.0000000116
  9
$USRTIMER
 70
     1
  9
$ANGBASE
 50
0.0
  9
$ANGDIR
 70
     0
  9
$PDMODE
 70
     0
  9
$PDSIZE
 40
0.0
  9
$PLINEWID
 40
0.0
  9
$COORDS
 70
     1
  9
$SPLFRAME
 70
     0
  9
$SPLINETYPE
 70
     6
  9
$SPLINESEGS
 70
     8
  9
$ATTDIA
 70
     0
  9
$ATTREQ
 70
     1
  9
$HANDLING
 70
     1
  9
$HANDSEED
  5
2B3
  9
$SURFTAB1
 70
     6
  9
$SURFTAB2
 70
     6
  9
$SURFTYPE
 70
     6
  9
$SURFU
 70
     6
  9
$SURFV
 70
     6
  9
$UCSNAME
  2

  9
$UCSORG
 10
0.0
 20
0.0
 30
0.0
  9
$UCSXDIR
 10
1.0
 20
0.0
 30
0.0
  9
$UCSYDIR
 10
0.0
 20
1.0
 30
0.0
  9
$PUCSNAME
  2

  9
$PUCSORG
 10
0.0
 20
0.0
 30
0.0
  9
$PUCSXDIR
 10
1.0
 20
0.0
 30
0.0
  9
$PUCSYDIR
 10
0.0
 20
1.0
 30
0.0
  9
$USERI1
 70
     0
  9
$USERI2
 70
     0
  9
$USERI3
 70
     0
  9
$USERI4
 70
     0
  9
$USERI5
 70
     0
  9
$USERR1
 40
0.0
  9
$USERR2
 40
0.0
  9
$USERR3
 40
0.0
  9
$USERR4
 40
0.0
  9
$USERR5
 40
0.0
  9
$WORLDVIEW
 70
     1
  9
$SHADEDGE
 70
     3
  9
$SHADEDIF
 70
    70
  9
$TILEMODE
 70
     1
  9
$MAXACTVP
 70
    64
  9
$PLIMCHECK
 70
     0
  9
$PEXTMIN
 10
1.000000000000000E+20
 20
1.000000000000000E+20
 30
1.000000000000000E+20
  9
$PEXTMAX
 10
-1.000000000000000E+20
 20
-1.000000000000000E+20
 30
-1.000000000000000E+20
  9
$PLIMMIN
 10
0.0
 20
0.0
  9
$PLIMMAX
 10
12.0
 20
9.0
  9
$UNITMODE
 70
     0
  9
$VISRETAIN
 70
     1
  9
$PLINEGEN
 70
     0
  9
$PSLTSCALE
 70
     1
  0
ENDSEC
  0
SECTION
  2
TABLES
  0
TABLE
  2
VPORT
 70
     2
  0
VPORT
  2
*ACTIVE
 70
     0
 10
0.0
 20
0.0
 11
1.0
 21
1.0
 12
129.3422441522962
 22
66.94673589934837
 13
0.0
 23
0.0
 14
0.5
 24
0.5
 15
0.5
 25
0.5
 16
0.0
 26
0.0
 36
1.0
 17
0.0
 27
0.0
 37
0.0
 40
496.8552950211938
 41
0.0357382862446812
 42
50.0
 43
0.0
 44
0.0
 50
0.0
 51
0.0000000000007958
 71
     0
 72
   100
 73
     1
 74
     3
 75
     0
 76
     0
 77
     0
 78
     0
  0
ENDTAB
  0
TABLE
  2
LTYPE
 70
    25
  0
LTYPE
  2
CONTINUOUS
 70
     0
  3
Solid line
 72
    65
 73
     0
 40
0.0
  0
LTYPE
  2
CENTER
 70
     0
  3
Center ____ _ ____ _ ____ _ ____ _ ____ _ ____
 72
    65
 73
     4
 40
2.0
 49
1.25
 49
-0.25
 49
0.25
 49
-0.25
  0
LTYPE
  2
DASHDOT
 70
     0
  3
Dashdot __ . __ . __ . __ . __ . __ . __ . __
 72
    65
 73
     4
 40
1.0
 49
0.5
 49
-0.25
 49
0.0
 49
-0.25
  0
LTYPE
  2
DASHED
 70
     0
  3
Dashed __ __ __ __ __ __ __ __ __ __ __ __ __ _
 72
    65
 73
     2
 40
0.75
 49
0.5
 49
-0.25
  0
LTYPE
  2
HIDDEN
 70
     0
  3
Hidden __ __ __ __ __ __ __ __ __ __ __ __ __ __
 72
    65
 73
     2
 40
0.375
 49
0.25
 49
-0.125
  0
LTYPE
  2
HIDDEN2
 70
     0
  3
Hidden2 _ _ _ _ _ _ _ _ _ _ _ _ _ _ _ _ _ 
 72
    65
 73
     2
 40
0.1875
 49
0.125
 49
-0.0625
  0
LTYPE
  2
BORDER
 70
     0
  3
Border __ __ . __ __ . __ __ . __ __ . __ __ .
 72
    65
 73
     6
 40
1.75
 49
0.5
 49
-0.25
 49
0.5
 49
-0.25
 49
0.0
 49
-0.25
  0
LTYPE
  2
BORDER2
 70
     0
  3
Border2 __.__.__.__.__.__.__.__.__.__.__.
 72
    65
 73
     6
 40
0.875
 49
0.25
 49
-0.125
 49
0.25
 49
-0.125
 49
0.0
 49
-0.125
  0
LTYPE
  2
BORDERX2
 70
     0
  3
Borderx2  ____  ____  .  ____  ____  .  ___
 72
    65
 73
     6
 40
3.5
 49
1.0
 49
-0.5
 49
1.0
 49
-0.5
 49
0.0
 49
-0.5
  0
LTYPE
  2
CENTER2
 70
     0
  3
Center2  ___ _ ___ _ ___ _ ___ _ ___ _ ___
 72
    65
 73
     4
 40
1.125
 49
0.75
 49
-0.125
 49
0.125
 49
-0.125
  0
LTYPE
  2
CENTERX2
 70
     0
  3
Centerx2  ________  __  ________  __  _____
 72
    65
 73
     4
 40
4.0
 49
2.5
 49
-0.5
 49
0.5
 49
-0.5
  0
LTYPE
  2
DASHDOT2
 70
     0
  3
Dashdot2  _._._._._._._._._._._._._._._.
 72
    65
 73
     4
 40
0.5
 49
0.25
 49
-0.125
 49
0.0
 49
-0.125
  0
LTYPE
  2
DASHDOTX2
 70
     0
  3
Dashdotx2 ____  .  ____  .  ____  .  ___
 72
    65
 73
     4
 40
2.0
 49
1.0
 49
-0.5
 49
0.0
 49
-0.5
  0
LTYPE
  2
DASHED2
 70
     0
  3
Dashed2 _ _ _ _ _ _ _ _ _ _ _ _ _ _ _ _ _ 
 72
    65
 73
     2
 40
0.375
 49
0.25
 49
-0.125
  0
LTYPE
  2
DASHEDX2
 70
     0
  3
Dashedx2 ____  ____  ____  ____  ____  ___
 72
    65
 73
     2
 40
1.5
 49
1.0
 49
-0.5
  0
LTYPE
  2
DIVIDE
 70
     0
  3
Divide ____ . . ____ . . ____ . . ____ . . ____
 72
    65
 73
     6
 40
1.25
 49
0.5
 49
-0.25
 49
0.0
 49
-0.25
 49
0.0
 49
-0.25
  0
LTYPE
  2
DIVIDE2
 70
     0
  3
Divide2 __..__..__..__..__..__..__..__.._
 72
    65
 73
     6
 40
0.625
 49
0.25
 49
-0.125
 49
0.0
 49
-0.125
 49
0.0
 49
-0.125
  0
LTYPE
  2
DIVIDEX2
 70
     0
  3
Dividex2 ________  .  .  ________  .  .  _
 72
    65
 73
     6
 40
2.5
 49
1.0
 49
-0.5
 49
0.0
 49
-0.5
 49
0.0
 49
-0.5
  0
LTYPE
  2
DOT
 70
     0
  3
Dot . . . . . . . . . . . . . . . . . . . . . . . .
 72
    65
 73
     2
 40
0.25
 49
0.0
 49
-0.25
  0
LTYPE
  2
DOT2
 70
     0
  3
Dot2 ........................................
 72
    65
 73
     2
 40
0.125
 49
0.0
 49
-0.125
  0
LTYPE
  2
DOTX2
 70
     0
  3
Dotx2 .  .  .  .  .  .  .  .  .  .  .  .  .  .
 72
    65
 73
     2
 40
0.5
 49
0.0
 49
-0.5
  0
LTYPE
  2
HIDDENX2
 70
     0
  3
Hiddenx2 ____ ____ ____ ____ ____ ____ ____ 
 72
    65
 73
     2
 40
0.75
 49
0.5
 49
-0.25
  0
LTYPE
  2
PHANTOM
 70
     0
  3
Phantom ______  __  __  ______  __  __  ______ 
 72
    65
 73
     6
 40
2.5
 49
1.25
 49
-0.25
 49
0.25
 49
-0.25
 49
0.25
 49
-0.25
  0
LTYPE
  2
PHANTOM2
 70
     0
  3
Phantom2 ___ _ _ ___ _ _ ___ _ _ ___ _ _
 72
    65
 73
     6
 40
1.25
 49
0.625
 49
-0.125
 49
0.125
 49
-0.125
 49
0.125
 49
-0.125
  0
LTYPE
  2
PHANTOMX2
 70
     0
  3
Phantomx2 ____________    ____    ____   _
 72
    65
 73
     6
 40
5.0
 49
2.5
 49
-0.5
 49
0.5
 49
-0.5
 49
0.5
 49
-0.5
  0
ENDTAB
  0
TABLE
  2
LAYER
 70
     1
  0
LAYER
  2
0
 70
     0
 62
     7
  6
CONTINUOUS
  0
ENDTAB
  0
TABLE
  2
STYLE
 70
     1
  0
STYLE
  2
STANDARD
 70
     0
 40
0.0
 41
1.0
 50
0.0
 71
     0
 42
0.2
  3
txt.shx
  4

  0
ENDTAB
  0
TABLE
  2
VIEW
 70
     0
  0
ENDTAB
  0
TABLE
  2
UCS
 70
     0
  0
ENDTAB
  0
TABLE
  2
APPID
 70
     6
  0
APPID
  2
ACAD
 70
     0
  0
APPID
  2
VD_INVISIBLE_NOT_FOR_READ
 70
     0
  0
APPID
  2
VD_TEMPHATCH
 70
     0
  0
APPID
  2
VDEXTRAPARAM
 70
     0
  0
APPID
  2
PE_URL
 70
     0
  0
APPID
  2
VD_UNKNOWN
 70
     0
  0
ENDTAB
  0
TABLE
  2
DIMSTYLE
 70
     1
  0
DIMSTYLE
  2
STANDARD
 70
     0
  3

  4

  5
VDDIM_DEFAULT
  6

  7

 40
1.0
 41
0.18
 42
0.0625
 43
0.38
 44
0.18
 45
0.0
 46
0.0
 47
0.0
 48
0.0
140
0.18
141
0.09
142
0.0
143
25.4
144
1.0
145
0.0
146
1.0
147
0.09
 71
     0
 72
     0
 73
     1
 74
     1
 75
     0
 76
     0
 77
     0
 78
     0
170
     0
171
     2
172
     1
173
     0
174
     1
175
     0
176
     0
177
     0
178
     0
  0
ENDTAB
  0
ENDSEC
  0
SECTION
  2
BLOCKS
  0
BLOCK
  8
0
  2
$MODEL_SPACE
 70
     0
 10
0.0
 20
0.0
 30
0.0
  3
$MODEL_SPACE
  1

  0
ENDBLK
  5
275
  8
0
  0
BLOCK
 67
     1
  8
0
  2
$PAPER_SPACE
 70
     0
 10
0.0
 20
0.0
 30
0.0
  3
$PAPER_SPACE
  1

  0
ENDBLK
  5
271
 67
     1
  8
0
  0
BLOCK
  8
0
  2
$PAPER_SPACE0
 70
     0
 10
0.0
 20
0.0
 30
0.0
  3
$PAPER_SPACE0
  1

  0
ENDBLK
  5
279
  8
0
  0
BLOCK
  8
0
  2
VDDIM_DEFAULT
 70
     0
 10
0.0
 20
0.0
 30
0.0
  3
VDDIM_DEFAULT
  1

  0
POLYLINE
  5
252
  8
0
  6
CONTINUOUS
 62
     0
 66
     1
 10
0.0
 20
0.0
 30
0.0
1001
VDEXTRAPARAM
1071
        1
1071
        0
1071
        0
1040
1.0
1000

1000

1040
0.0
1040
0.0
  0
VERTEX
  5
2AB
  8
0
  6
CONTINUOUS
 62
     0
 10
0.0
 20
0.0
 30
0.0
  0
VERTEX
  5
2AC
  8
0
  6
CONTINUOUS
 62
     0
 10
-1.0
 20
-0.1665
 30
0.0
  0
VERTEX
  5
2AD
  8
0
  6
CONTINUOUS
 62
     0
 10
-1.0
 20
0.1665
 30
0.0
  0
VERTEX
  5
2AE
  8
0
  6
CONTINUOUS
 62
     0
 10
0.0
 20
0.0
 30
0.0
  0
SEQEND
  5
2AA
  8
0
  6
CONTINUOUS
 62
     0
  0
INSERT
  5
2A1
  8
0
  6
CONTINUOUS
 62
     0
  2
*U3
 10
0.0
 20
0.0
 30
0.0
1001
ACAD
1002
{
1000
R14_HATCH_DATA
1000
2A1
1011
1.0
1021
0.0
1031
0.0
1021
0.0
1031
0.0
1011
0.0
1021
1.0
1031
0.0
1021
1.0
1031
0.0
1011
0.0
1021
0.0
1031
1.0
1021
0.0
1031
1.0
1040
0.0
1010
0.0
1020
0.0
1030
1.0
1020
0.0
1030
1.0
1000
SOLID
1070
     1
1070
     1
1071
        1
1071
        2
1070
     0
1070
     1
1071
        3
1040
0.0
1040
0.0
1040
-1.0
1040
-0.1665
1040
-1.0
1040
0.1665
1071
        0
1070
     0
1070
     1
1071
        1
1040
0.0
1040
0.0
1040
0.0
1002
}
  0
ENDBLK
  5
29E
  8
0
  0
BLOCK
  8
0
  2
VDDIM_NONE
 70
     0
 10
0.0
 20
0.0
 30
0.0
  3
VDDIM_NONE
  1

  0
ENDBLK
  5
2A0
  8
0
  0
BLOCK
  8
0
  2
*U3
 70
     1
 10
0.0
 20
0.0
 30
0.0
  3
*U3
  1

  0
SOLID
  5
2B0
  8
0
  6
CONTINUOUS
 62
     0
 10
-1.0
 20
-0.1665
 30
0.0
 11
-1.0
 21
0.1665
 31
0.0
 12
0.0
 22
0.0
 32
0.0
 13
0.0
 23
0.0
 33
0.0
  0
ENDBLK
  5
2B2
  8
0
  0
ENDSEC
  0
SECTION
  2
ENTITIES
  0
LINE
  5
20
  8
0
 10
152.5
 20
-33.0
 30
0.0
 11
152.5
 21
-7.0
 31
0.0
  0
LINE
  5
21
  8
0
 10
152.5
 20
-7.0
 30
0.0
 11
145.0
 21
0.0
 31
0.0
  0
LINE
  5
22
  8
0
 10
145.0
 20
0.0
 30
0.0
 11
114.0
 21
0.0
 31
0.0
  0
LINE
  5
23
  8
0
 10
114.0
 20
0.0
 30
0.0
 11
102.0
 21
-11.5
 31
0.0
  0
LINE
  5
24
  8
0
 10
102.0000000339189
 20
-11.49999998764857
 30
0.0
 11
-102.0000000534481
 21
-11.49999999617076
 31
0.0
  0
LINE
  5
25
  8
0
 10
-102.0
 20
-11.5
 30
0.0
 11
-114.0
 21
0.0
 31
0.0
  0
LINE
  5
26
  8
0
 10
-114.0
 20
0.0
 30
0.0
 11
-145.0
 21
0.0
 31
0.0
  0
LINE
  5
27
  8
0
 10
-145.0
 20
0.0
 30
0.0
 11
-152.5
 21
-7.0
 31
0.0
  0
LINE
  5
28
  8
0
 10
-152.5
 20
-7.0
 30
0.0
 11
-152.5
 21
-33.0
 31
0.0
  0
LINE
  5
29
  8
0
 10
-152.5
 20
-33.0
 30
0.0
 11
-142.5
 21
-50.0
 31
0.0
  0
LINE
  5
2A
  8
0
 10
-142.5000000079175
 20
-49.9999999939277
 30
0.0
 11
142.5000000858523
 21
-50.00000008797214
 31
0.0
  0
LINE
  5
2B
  8
0
 10
142.5
 20
-50.0
 30
0.0
 11
152.5
 21
-33.0
 31
0.0
  0
LINE
  5
2C
  8
0
 10
146.3387
 20
-12.3863
 30
0.0
 11
145.8275
 21
-12.2776
 31
0.0
  0
LINE
  5
2D
  8
0
 10
145.8275
 20
-12.2776
 30
0.0
 11
145.35
 21
-12.0651
 31
0.0
  0
LINE
  5
2E
  8
0
 10
145.35
 20
-12.0651
 30
0.0
 11
144.9272
 21
-11.7579
 31
0.0
  0
LINE
  5
2F
  8
0
 10
144.9272
 20
-11.7579
 30
0.0
 11
144.5775
 21
-11.3695
 31
0.0
  0
LINE
  5
30
  8
0
 10
144.5775
 20
-11.3695
 30
0.0
 11
144.3161
 21
-10.9168
 31
0.0
  0
LINE
  5
31
  8
0
 10
144.3161
 20
-10.9168
 30
0.0
 11
144.1546
 21
-10.4198
 31
0.0
  0
LINE
  5
32
  8
0
 10
144.1546
 20
-10.4198
 30
0.0
 11
144.1
 21
-9.899990000000001
 31
0.0
  0
LINE
  5
33
  8
0
 10
144.1
 20
-9.899990000000001
 30
0.0
 11
144.1546
 21
-9.38022
 31
0.0
  0
LINE
  5
34
  8
0
 10
144.1546
 20
-9.38022
 30
0.0
 11
144.3161
 21
-8.883150000000001
 31
0.0
  0
LINE
  5
35
  8
0
 10
144.3161
 20
-8.883150000000001
 30
0.0
 11
144.5775
 21
-8.430529999999999
 31
0.0
  0
LINE
  5
36
  8
0
 10
144.5775
 20
-8.430529999999999
 30
0.0
 11
144.9272
 21
-8.04213
 31
0.0
  0
LINE
  5
37
  8
0
 10
144.9272
 20
-8.04213
 30
0.0
 11
145.35
 21
-7.73492
 31
0.0
  0
LINE
  5
38
  8
0
 10
145.35
 20
-7.73492
 30
0.0
 11
145.8275
 21
-7.52235
 31
0.0
  0
LINE
  5
39
  8
0
 10
145.8275
 20
-7.52235
 30
0.0
 11
146.3387
 21
-7.41368
 31
0.0
  0
LINE
  5
3A
  8
0
 10
146.3387
 20
-7.41368
 30
0.0
 11
146.8613
 21
-7.41368
 31
0.0
  0
LINE
  5
3B
  8
0
 10
146.8613
 20
-7.41368
 30
0.0
 11
147.3725
 21
-7.52235
 31
0.0
  0
LINE
  5
3C
  8
0
 10
147.3725
 20
-7.52235
 30
0.0
 11
147.85
 21
-7.73492
 31
0.0
  0
LINE
  5
3D
  8
0
 10
147.85
 20
-7.73492
 30
0.0
 11
148.2728
 21
-8.04213
 31
0.0
  0
LINE
  5
3E
  8
0
 10
148.2728
 20
-8.04213
 30
0.0
 11
148.6225
 21
-8.430529999999999
 31
0.0
  0
LINE
  5
3F
  8
0
 10
148.6225
 20
-8.430529999999999
 30
0.0
 11
148.8839
 21
-8.883150000000001
 31
0.0
  0
LINE
  5
40
  8
0
 10
148.8839
 20
-8.883150000000001
 30
0.0
 11
149.0454
 21
-9.38022
 31
0.0
  0
LINE
  5
41
  8
0
 10
149.0454
 20
-9.38022
 30
0.0
 11
149.1
 21
-9.899990000000001
 31
0.0
  0
LINE
  5
42
  8
0
 10
149.1
 20
-9.899990000000001
 30
0.0
 11
149.0454
 21
-10.4198
 31
0.0
  0
LINE
  5
43
  8
0
 10
149.0454
 20
-10.4198
 30
0.0
 11
148.8839
 21
-10.9168
 31
0.0
  0
LINE
  5
44
  8
0
 10
148.8839
 20
-10.9168
 30
0.0
 11
148.6225
 21
-11.3695
 31
0.0
  0
LINE
  5
45
  8
0
 10
148.6225
 20
-11.3695
 30
0.0
 11
148.2728
 21
-11.7579
 31
0.0
  0
LINE
  5
46
  8
0
 10
148.2728
 20
-11.7579
 30
0.0
 11
147.85
 21
-12.0651
 31
0.0
  0
LINE
  5
47
  8
0
 10
147.85
 20
-12.0651
 30
0.0
 11
147.3725
 21
-12.2776
 31
0.0
  0
LINE
  5
48
  8
0
 10
147.3725
 20
-12.2776
 30
0.0
 11
146.8613
 21
-12.3863
 31
0.0
  0
LINE
  5
49
  8
0
 10
146.8613
 20
-12.3863
 30
0.0
 11
146.3387
 21
-12.3863
 31
0.0
  0
LINE
  5
4A
  8
0
 10
123.1387
 20
-12.3863
 30
0.0
 11
122.6275
 21
-12.2776
 31
0.0
  0
LINE
  5
4B
  8
0
 10
122.6275
 20
-12.2776
 30
0.0
 11
122.15
 21
-12.0651
 31
0.0
  0
LINE
  5
4C
  8
0
 10
122.15
 20
-12.0651
 30
0.0
 11
121.7272
 21
-11.7579
 31
0.0
  0
LINE
  5
4D
  8
0
 10
121.7272
 20
-11.7579
 30
0.0
 11
121.3775
 21
-11.3695
 31
0.0
  0
LINE
  5
4E
  8
0
 10
121.3775
 20
-11.3695
 30
0.0
 11
121.1161
 21
-10.9168
 31
0.0
  0
LINE
  5
4F
  8
0
 10
121.1161
 20
-10.9168
 30
0.0
 11
120.9546
 21
-10.4198
 31
0.0
  0
LINE
  5
50
  8
0
 10
120.9546
 20
-10.4198
 30
0.0
 11
120.9
 21
-9.899990000000001
 31
0.0
  0
LINE
  5
51
  8
0
 10
120.9
 20
-9.899990000000001
 30
0.0
 11
120.9546
 21
-9.38022
 31
0.0
  0
LINE
  5
52
  8
0
 10
120.9546
 20
-9.38022
 30
0.0
 11
121.1161
 21
-8.883150000000001
 31
0.0
  0
LINE
  5
53
  8
0
 10
121.1161
 20
-8.883150000000001
 30
0.0
 11
121.3775
 21
-8.430529999999999
 31
0.0
  0
LINE
  5
54
  8
0
 10
121.3775
 20
-8.430529999999999
 30
0.0
 11
121.7272
 21
-8.04213
 31
0.0
  0
LINE
  5
55
  8
0
 10
121.7272
 20
-8.04213
 30
0.0
 11
122.15
 21
-7.73492
 31
0.0
  0
LINE
  5
56
  8
0
 10
122.15
 20
-7.73492
 30
0.0
 11
122.6275
 21
-7.52235
 31
0.0
  0
LINE
  5
57
  8
0
 10
122.6275
 20
-7.52235
 30
0.0
 11
123.1387
 21
-7.41368
 31
0.0
  0
LINE
  5
58
  8
0
 10
123.1387
 20
-7.41368
 30
0.0
 11
123.6613
 21
-7.41368
 31
0.0
  0
LINE
  5
59
  8
0
 10
123.6613
 20
-7.41368
 30
0.0
 11
124.1725
 21
-7.52235
 31
0.0
  0
LINE
  5
5A
  8
0
 10
124.1725
 20
-7.52235
 30
0.0
 11
124.65
 21
-7.73492
 31
0.0
  0
LINE
  5
5B
  8
0
 10
124.65
 20
-7.73492
 30
0.0
 11
125.0728
 21
-8.04213
 31
0.0
  0
LINE
  5
5C
  8
0
 10
125.0728
 20
-8.04213
 30
0.0
 11
125.4225
 21
-8.430529999999999
 31
0.0
  0
LINE
  5
5D
  8
0
 10
125.4225
 20
-8.430529999999999
 30
0.0
 11
125.6839
 21
-8.883150000000001
 31
0.0
  0
LINE
  5
5E
  8
0
 10
125.6839
 20
-8.883150000000001
 30
0.0
 11
125.8454
 21
-9.38022
 31
0.0
  0
LINE
  5
5F
  8
0
 10
125.8454
 20
-9.38022
 30
0.0
 11
125.9
 21
-9.899990000000001
 31
0.0
  0
LINE
  5
60
  8
0
 10
125.9
 20
-9.899990000000001
 30
0.0
 11
125.8454
 21
-10.4198
 31
0.0
  0
LINE
  5
61
  8
0
 10
125.8454
 20
-10.4198
 30
0.0
 11
125.6839
 21
-10.9168
 31
0.0
  0
LINE
  5
62
  8
0
 10
125.6839
 20
-10.9168
 30
0.0
 11
125.4225
 21
-11.3695
 31
0.0
  0
LINE
  5
63
  8
0
 10
125.4225
 20
-11.3695
 30
0.0
 11
125.0728
 21
-11.7579
 31
0.0
  0
LINE
  5
64
  8
0
 10
125.0728
 20
-11.7579
 30
0.0
 11
124.65
 21
-12.0651
 31
0.0
  0
LINE
  5
65
  8
0
 10
124.65
 20
-12.0651
 30
0.0
 11
124.1725
 21
-12.2776
 31
0.0
  0
LINE
  5
66
  8
0
 10
124.1725
 20
-12.2776
 30
0.0
 11
123.6613
 21
-12.3863
 31
0.0
  0
LINE
  5
67
  8
0
 10
123.6613
 20
-12.3863
 30
0.0
 11
123.1387
 21
-12.3863
 31
0.0
  0
LINE
  5
68
  8
0
 10
-146.8613
 20
-12.3863
 30
0.0
 11
-147.3725
 21
-12.2776
 31
0.0
  0
LINE
  5
69
  8
0
 10
-147.3725
 20
-12.2776
 30
0.0
 11
-147.85
 21
-12.0651
 31
0.0
  0
LINE
  5
6A
  8
0
 10
-147.85
 20
-12.0651
 30
0.0
 11
-148.2728
 21
-11.7579
 31
0.0
  0
LINE
  5
6B
  8
0
 10
-148.2728
 20
-11.7579
 30
0.0
 11
-148.6225
 21
-11.3695
 31
0.0
  0
LINE
  5
6C
  8
0
 10
-148.6225
 20
-11.3695
 30
0.0
 11
-148.8839
 21
-10.9168
 31
0.0
  0
LINE
  5
6D
  8
0
 10
-148.8839
 20
-10.9168
 30
0.0
 11
-149.0454
 21
-10.4198
 31
0.0
  0
LINE
  5
6E
  8
0
 10
-149.0454
 20
-10.4198
 30
0.0
 11
-149.1
 21
-9.899990000000001
 31
0.0
  0
LINE
  5
6F
  8
0
 10
-149.1
 20
-9.899990000000001
 30
0.0
 11
-149.0454
 21
-9.38022
 31
0.0
  0
LINE
  5
70
  8
0
 10
-149.0454
 20
-9.38022
 30
0.0
 11
-148.8839
 21
-8.883150000000001
 31
0.0
  0
LINE
  5
71
  8
0
 10
-148.8839
 20
-8.883150000000001
 30
0.0
 11
-148.6225
 21
-8.430529999999999
 31
0.0
  0
LINE
  5
72
  8
0
 10
-148.6225
 20
-8.430529999999999
 30
0.0
 11
-148.2728
 21
-8.04213
 31
0.0
  0
LINE
  5
73
  8
0
 10
-148.2728
 20
-8.04213
 30
0.0
 11
-147.85
 21
-7.73492
 31
0.0
  0
LINE
  5
74
  8
0
 10
-147.85
 20
-7.73492
 30
0.0
 11
-147.3725
 21
-7.52235
 31
0.0
  0
LINE
  5
75
  8
0
 10
-147.3725
 20
-7.52235
 30
0.0
 11
-146.8613
 21
-7.41368
 31
0.0
  0
LINE
  5
76
  8
0
 10
-146.8613
 20
-7.41368
 30
0.0
 11
-146.3387
 21
-7.41368
 31
0.0
  0
LINE
  5
77
  8
0
 10
-146.3387
 20
-7.41368
 30
0.0
 11
-145.8275
 21
-7.52235
 31
0.0
  0
LINE
  5
78
  8
0
 10
-145.8275
 20
-7.52235
 30
0.0
 11
-145.35
 21
-7.73492
 31
0.0
  0
LINE
  5
79
  8
0
 10
-145.35
 20
-7.73492
 30
0.0
 11
-144.9272
 21
-8.04213
 31
0.0
  0
LINE
  5
7A
  8
0
 10
-144.9272
 20
-8.04213
 30
0.0
 11
-144.5775
 21
-8.430529999999999
 31
0.0
  0
LINE
  5
7B
  8
0
 10
-144.5775
 20
-8.430529999999999
 30
0.0
 11
-144.3161
 21
-8.883150000000001
 31
0.0
  0
LINE
  5
7C
  8
0
 10
-144.3161
 20
-8.883150000000001
 30
0.0
 11
-144.1546
 21
-9.38022
 31
0.0
  0
LINE
  5
7D
  8
0
 10
-144.1546
 20
-9.38022
 30
0.0
 11
-144.1
 21
-9.899990000000001
 31
0.0
  0
LINE
  5
7E
  8
0
 10
-144.1
 20
-9.899990000000001
 30
0.0
 11
-144.1546
 21
-10.4198
 31
0.0
  0
LINE
  5
7F
  8
0
 10
-144.1546
 20
-10.4198
 30
0.0
 11
-144.3161
 21
-10.9168
 31
0.0
  0
LINE
  5
80
  8
0
 10
-144.3161
 20
-10.9168
 30
0.0
 11
-144.5775
 21
-11.3695
 31
0.0
  0
LINE
  5
81
  8
0
 10
-144.5775
 20
-11.3695
 30
0.0
 11
-144.9272
 21
-11.7579
 31
0.0
  0
LINE
  5
82
  8
0
 10
-144.9272
 20
-11.7579
 30
0.0
 11
-145.35
 21
-12.0651
 31
0.0
  0
LINE
  5
83
  8
0
 10
-145.35
 20
-12.0651
 30
0.0
 11
-145.8275
 21
-12.2776
 31
0.0
  0
LINE
  5
84
  8
0
 10
-145.8275
 20
-12.2776
 30
0.0
 11
-146.3387
 21
-12.3863
 31
0.0
  0
LINE
  5
85
  8
0
 10
-146.3387
 20
-12.3863
 30
0.0
 11
-146.8613
 21
-12.3863
 31
0.0
  0
LINE
  5
86
  8
0
 10
-123.6613
 20
-12.3863
 30
0.0
 11
-124.1725
 21
-12.2776
 31
0.0
  0
LINE
  5
87
  8
0
 10
-124.1725
 20
-12.2776
 30
0.0
 11
-124.65
 21
-12.0651
 31
0.0
  0
LINE
  5
88
  8
0
 10
-124.65
 20
-12.0651
 30
0.0
 11
-125.0728
 21
-11.7579
 31
0.0
  0
LINE
  5
89
  8
0
 10
-125.0728
 20
-11.7579
 30
0.0
 11
-125.4225
 21
-11.3695
 31
0.0
  0
LINE
  5
8A
  8
0
 10
-125.4225
 20
-11.3695
 30
0.0
 11
-125.6839
 21
-10.9168
 31
0.0
  0
LINE
  5
8B
  8
0
 10
-125.6839
 20
-10.9168
 30
0.0
 11
-125.8454
 21
-10.4198
 31
0.0
  0
LINE
  5
8C
  8
0
 10
-125.8454
 20
-10.4198
 30
0.0
 11
-125.9
 21
-9.899990000000001
 31
0.0
  0
LINE
  5
8D
  8
0
 10
-125.9
 20
-9.899990000000001
 30
0.0
 11
-125.8454
 21
-9.38022
 31
0.0
  0
LINE
  5
8E
  8
0
 10
-125.8454
 20
-9.38022
 30
0.0
 11
-125.6839
 21
-8.883150000000001
 31
0.0
  0
LINE
  5
8F
  8
0
 10
-125.6839
 20
-8.883150000000001
 30
0.0
 11
-125.4225
 21
-8.430529999999999
 31
0.0
  0
LINE
  5
90
  8
0
 10
-125.4225
 20
-8.430529999999999
 30
0.0
 11
-125.0728
 21
-8.04213
 31
0.0
  0
LINE
  5
91
  8
0
 10
-125.0728
 20
-8.04213
 30
0.0
 11
-124.65
 21
-7.73492
 31
0.0
  0
LINE
  5
92
  8
0
 10
-124.65
 20
-7.73492
 30
0.0
 11
-124.1725
 21
-7.52235
 31
0.0
  0
LINE
  5
93
  8
0
 10
-124.1725
 20
-7.52235
 30
0.0
 11
-123.6613
 21
-7.41368
 31
0.0
  0
LINE
  5
94
  8
0
 10
-123.6613
 20
-7.41368
 30
0.0
 11
-123.1387
 21
-7.41368
 31
0.0
  0
LINE
  5
95
  8
0
 10
-123.1387
 20
-7.41368
 30
0.0
 11
-122.6275
 21
-7.52235
 31
0.0
  0
LINE
  5
96
  8
0
 10
-122.6275
 20
-7.52235
 30
0.0
 11
-122.15
 21
-7.73492
 31
0.0
  0
LINE
  5
97
  8
0
 10
-122.15
 20
-7.73492
 30
0.0
 11
-121.7272
 21
-8.04213
 31
0.0
  0
LINE
  5
98
  8
0
 10
-121.7272
 20
-8.04213
 30
0.0
 11
-121.3775
 21
-8.430529999999999
 31
0.0
  0
LINE
  5
99
  8
0
 10
-121.3775
 20
-8.430529999999999
 30
0.0
 11
-121.1161
 21
-8.883150000000001
 31
0.0
  0
LINE
  5
9A
  8
0
 10
-121.1161
 20
-8.883150000000001
 30
0.0
 11
-120.9546
 21
-9.38022
 31
0.0
  0
LINE
  5
9B
  8
0
 10
-120.9546
 20
-9.38022
 30
0.0
 11
-120.9
 21
-9.899990000000001
 31
0.0
  0
LINE
  5
9C
  8
0
 10
-120.9
 20
-9.899990000000001
 30
0.0
 11
-120.9546
 21
-10.4198
 31
0.0
  0
LINE
  5
9D
  8
0
 10
-120.9546
 20
-10.4198
 30
0.0
 11
-121.1161
 21
-10.9168
 31
0.0
  0
LINE
  5
9E
  8
0
 10
-121.1161
 20
-10.9168
 30
0.0
 11
-121.3775
 21
-11.3695
 31
0.0
  0
LINE
  5
9F
  8
0
 10
-121.3775
 20
-11.3695
 30
0.0
 11
-121.7272
 21
-11.7579
 31
0.0
  0
LINE
  5
A0
  8
0
 10
-121.7272
 20
-11.7579
 30
0.0
 11
-122.15
 21
-12.0651
 31
0.0
  0
LINE
  5
A1
  8
0
 10
-122.15
 20
-12.0651
 30
0.0
 11
-122.6275
 21
-12.2776
 31
0.0
  0
LINE
  5
A2
  8
0
 10
-122.6275
 20
-12.2776
 30
0.0
 11
-123.1387
 21
-12.3863
 31
0.0
  0
LINE
  5
A3
  8
0
 10
-123.1387
 20
-12.3863
 30
0.0
 11
-123.6613
 21
-12.3863
 31
0.0
  0
LINE
  5
A4
  8
0
 10
-0.156784
 20
-21.4918
 30
0.0
 11
-0.463516
 21
-21.4266
 31
0.0
  0
LINE
  5
A5
  8
0
 10
-0.463516
 20
-21.4266
 30
0.0
 11
-0.75
 21
-21.299
 31
0.0
  0
LINE
  5
A6
  8
0
 10
-0.75
 20
-21.299
 30
0.0
 11
-1.00369
 21
-21.1147
 31
0.0
  0
LINE
  5
A7
  8
0
 10
-1.00369
 20
-21.1147
 30
0.0
 11
-1.21352
 21
-20.8817
 31
0.0
  0
LINE
  5
A8
  8
0
 10
-1.21352
 20
-20.8817
 30
0.0
 11
-1.37032
 21
-20.6101
 31
0.0
  0
LINE
  5
A9
  8
0
 10
-1.37032
 20
-20.6101
 30
0.0
 11
-1.46721
 21
-20.3119
 31
0.0
  0
LINE
  5
AA
  8
0
 10
-1.46721
 20
-20.3119
 30
0.0
 11
-1.5
 21
-20.0
 31
0.0
  0
LINE
  5
AB
  8
0
 10
-1.5
 20
-20.0
 30
0.0
 11
-1.46721
 21
-19.6881
 31
0.0
  0
LINE
  5
AC
  8
0
 10
-1.46721
 20
-19.6881
 30
0.0
 11
-1.37032
 21
-19.3899
 31
0.0
  0
LINE
  5
AD
  8
0
 10
-1.37032
 20
-19.3899
 30
0.0
 11
-1.21352
 21
-19.1183
 31
0.0
  0
LINE
  5
AE
  8
0
 10
-1.21352
 20
-19.1183
 30
0.0
 11
-1.00369
 21
-18.8853
 31
0.0
  0
LINE
  5
AF
  8
0
 10
-1.00369
 20
-18.8853
 30
0.0
 11
-0.749985
 21
-18.701
 31
0.0
  0
LINE
  5
B0
  8
0
 10
-0.749985
 20
-18.701
 30
0.0
 11
-0.463516
 21
-18.5734
 31
0.0
  0
LINE
  5
B1
  8
0
 10
-0.463516
 20
-18.5734
 30
0.0
 11
-0.156784
 21
-18.5082
 31
0.0
  0
LINE
  5
B2
  8
0
 10
-0.156784
 20
-18.5082
 30
0.0
 11
0.156784
 21
-18.5082
 31
0.0
  0
LINE
  5
B3
  8
0
 10
0.156784
 20
-18.5082
 30
0.0
 11
0.463516
 21
-18.5734
 31
0.0
  0
LINE
  5
B4
  8
0
 10
0.463516
 20
-18.5734
 30
0.0
 11
0.75
 21
-18.701
 31
0.0
  0
LINE
  5
B5
  8
0
 10
0.75
 20
-18.701
 30
0.0
 11
1.00369
 21
-18.8853
 31
0.0
  0
LINE
  5
B6
  8
0
 10
1.00369
 20
-18.8853
 30
0.0
 11
1.21352
 21
-19.1183
 31
0.0
  0
LINE
  5
B7
  8
0
 10
1.21352
 20
-19.1183
 30
0.0
 11
1.37032
 21
-19.3899
 31
0.0
  0
LINE
  5
B8
  8
0
 10
1.37032
 20
-19.3899
 30
0.0
 11
1.46721
 21
-19.6881
 31
0.0
  0
LINE
  5
B9
  8
0
 10
1.46721
 20
-19.6881
 30
0.0
 11
1.5
 21
-20.0
 31
0.0
  0
LINE
  5
BA
  8
0
 10
1.5
 20
-20.0
 30
0.0
 11
1.46721
 21
-20.3119
 31
0.0
  0
LINE
  5
BB
  8
0
 10
1.46721
 20
-20.3119
 30
0.0
 11
1.37032
 21
-20.6101
 31
0.0
  0
LINE
  5
BC
  8
0
 10
1.37032
 20
-20.6101
 30
0.0
 11
1.21352
 21
-20.8817
 31
0.0
  0
LINE
  5
BD
  8
0
 10
1.21352
 20
-20.8817
 30
0.0
 11
1.00369
 21
-21.1147
 31
0.0
  0
LINE
  5
BE
  8
0
 10
1.00369
 20
-21.1147
 30
0.0
 11
0.75
 21
-21.299
 31
0.0
  0
LINE
  5
BF
  8
0
 10
0.75
 20
-21.299
 30
0.0
 11
0.463516
 21
-21.4266
 31
0.0
  0
LINE
  5
C0
  8
0
 10
0.463516
 20
-21.4266
 30
0.0
 11
0.156784
 21
-21.4918
 31
0.0
  0
LINE
  5
C1
  8
0
 10
0.156784
 20
-21.4918
 30
0.0
 11
-0.156784
 21
-21.4918
 31
0.0
  0
LINE
  5
C2
  8
0
 10
-110.1725
 20
-22.641
 30
0.0
 11
-110.5099
 21
-22.5692
 31
0.0
  0
LINE
  5
C3
  8
0
 10
-110.5099
 20
-22.5692
 30
0.0
 11
-110.825
 21
-22.4289
 31
0.0
  0
LINE
  5
C4
  8
0
 10
-110.825
 20
-22.4289
 30
0.0
 11
-111.1041
 21
-22.2262
 31
0.0
  0
LINE
  5
C5
  8
0
 10
-111.1041
 20
-22.2262
 30
0.0
 11
-111.3349
 21
-21.9698
 31
0.0
  0
LINE
  5
C6
  8
0
 10
-111.3349
 20
-21.9698
 30
0.0
 11
-111.5073
 21
-21.6711
 31
0.0
  0
LINE
  5
C7
  8
0
 10
-111.5073
 20
-21.6711
 30
0.0
 11
-111.6139
 21
-21.343
 31
0.0
  0
LINE
  5
C8
  8
0
 10
-111.6139
 20
-21.343
 30
0.0
 11
-111.65
 21
-21.0
 31
0.0
  0
LINE
  5
C9
  8
0
 10
-111.65
 20
-21.0
 30
0.0
 11
-111.6139
 21
-20.6569
 31
0.0
  0
LINE
  5
CA
  8
0
 10
-111.6139
 20
-20.6569
 30
0.0
 11
-111.5073
 21
-20.3289
 31
0.0
  0
LINE
  5
CB
  8
0
 10
-111.5073
 20
-20.3289
 30
0.0
 11
-111.3349
 21
-20.0302
 31
0.0
  0
LINE
  5
CC
  8
0
 10
-111.3349
 20
-20.0302
 30
0.0
 11
-111.1041
 21
-19.7738
 31
0.0
  0
LINE
  5
CD
  8
0
 10
-111.1041
 20
-19.7738
 30
0.0
 11
-110.825
 21
-19.571
 31
0.0
  0
LINE
  5
CE
  8
0
 10
-110.825
 20
-19.571
 30
0.0
 11
-110.5099
 21
-19.4308
 31
0.0
  0
LINE
  5
CF
  8
0
 10
-110.5099
 20
-19.4308
 30
0.0
 11
-110.1725
 21
-19.359
 31
0.0
  0
LINE
  5
D0
  8
0
 10
-110.1725
 20
-19.359
 30
0.0
 11
-109.8275
 21
-19.359
 31
0.0
  0
LINE
  5
D1
  8
0
 10
-109.8275
 20
-19.359
 30
0.0
 11
-109.4901
 21
-19.4308
 31
0.0
  0
LINE
  5
D2
  8
0
 10
-109.4901
 20
-19.4308
 30
0.0
 11
-109.175
 21
-19.571
 31
0.0
  0
LINE
  5
D3
  8
0
 10
-109.175
 20
-19.571
 30
0.0
 11
-108.8959
 21
-19.7738
 31
0.0
  0
LINE
  5
D4
  8
0
 10
-108.8959
 20
-19.7738
 30
0.0
 11
-108.6651
 21
-20.0302
 31
0.0
  0
LINE
  5
D5
  8
0
 10
-108.6651
 20
-20.0302
 30
0.0
 11
-108.4926
 21
-20.3289
 31
0.0
  0
LINE
  5
D6
  8
0
 10
-108.4926
 20
-20.3289
 30
0.0
 11
-108.386
 21
-20.6569
 31
0.0
  0
LINE
  5
D7
  8
0
 10
-108.386
 20
-20.6569
 30
0.0
 11
-108.35
 21
-21.0
 31
0.0
  0
LINE
  5
D8
  8
0
 10
-108.35
 20
-21.0
 30
0.0
 11
-108.386
 21
-21.343
 31
0.0
  0
LINE
  5
D9
  8
0
 10
-108.386
 20
-21.343
 30
0.0
 11
-108.4926
 21
-21.6711
 31
0.0
  0
LINE
  5
DA
  8
0
 10
-108.4926
 20
-21.6711
 30
0.0
 11
-108.6651
 21
-21.9698
 31
0.0
  0
LINE
  5
DB
  8
0
 10
-108.6651
 20
-21.9698
 30
0.0
 11
-108.8959
 21
-22.2262
 31
0.0
  0
LINE
  5
DC
  8
0
 10
-108.8959
 20
-22.2262
 30
0.0
 11
-109.175
 21
-22.4289
 31
0.0
  0
LINE
  5
DD
  8
0
 10
-109.175
 20
-22.4289
 30
0.0
 11
-109.4901
 21
-22.5692
 31
0.0
  0
LINE
  5
DE
  8
0
 10
-109.4901
 20
-22.5692
 30
0.0
 11
-109.8275
 21
-22.641
 31
0.0
  0
LINE
  5
DF
  8
0
 10
-109.8275
 20
-22.641
 30
0.0
 11
-110.1725
 21
-22.641
 31
0.0
  0
LINE
  5
E0
  8
0
 10
109.8275
 20
-22.641
 30
0.0
 11
109.4901
 21
-22.5692
 31
0.0
  0
LINE
  5
E1
  8
0
 10
109.4901
 20
-22.5692
 30
0.0
 11
109.175
 21
-22.4289
 31
0.0
  0
LINE
  5
E2
  8
0
 10
109.175
 20
-22.4289
 30
0.0
 11
108.8959
 21
-22.2262
 31
0.0
  0
LINE
  5
E3
  8
0
 10
108.8959
 20
-22.2262
 30
0.0
 11
108.6651
 21
-21.9698
 31
0.0
  0
LINE
  5
E4
  8
0
 10
108.6651
 20
-21.9698
 30
0.0
 11
108.4926
 21
-21.6711
 31
0.0
  0
LINE
  5
E5
  8
0
 10
108.4926
 20
-21.6711
 30
0.0
 11
108.386
 21
-21.343
 31
0.0
  0
LINE
  5
E6
  8
0
 10
108.386
 20
-21.343
 30
0.0
 11
108.35
 21
-21.0
 31
0.0
  0
LINE
  5
E7
  8
0
 10
108.35
 20
-21.0
 30
0.0
 11
108.386
 21
-20.6569
 31
0.0
  0
LINE
  5
E8
  8
0
 10
108.386
 20
-20.6569
 30
0.0
 11
108.4926
 21
-20.3289
 31
0.0
  0
LINE
  5
E9
  8
0
 10
108.4926
 20
-20.3289
 30
0.0
 11
108.6651
 21
-20.0302
 31
0.0
  0
LINE
  5
EA
  8
0
 10
108.6651
 20
-20.0302
 30
0.0
 11
108.8959
 21
-19.7738
 31
0.0
  0
LINE
  5
EB
  8
0
 10
108.8959
 20
-19.7738
 30
0.0
 11
109.175
 21
-19.571
 31
0.0
  0
LINE
  5
EC
  8
0
 10
109.175
 20
-19.571
 30
0.0
 11
109.4901
 21
-19.4308
 31
0.0
  0
LINE
  5
ED
  8
0
 10
109.4901
 20
-19.4308
 30
0.0
 11
109.8275
 21
-19.359
 31
0.0
  0
LINE
  5
EE
  8
0
 10
109.8275
 20
-19.359
 30
0.0
 11
110.1725
 21
-19.359
 31
0.0
  0
LINE
  5
EF
  8
0
 10
110.1725
 20
-19.359
 30
0.0
 11
110.5099
 21
-19.4308
 31
0.0
  0
LINE
  5
F0
  8
0
 10
110.5099
 20
-19.4308
 30
0.0
 11
110.825
 21
-19.571
 31
0.0
  0
LINE
  5
F1
  8
0
 10
110.825
 20
-19.571
 30
0.0
 11
111.1041
 21
-19.7738
 31
0.0
  0
LINE
  5
F2
  8
0
 10
111.1041
 20
-19.7738
 30
0.0
 11
111.3349
 21
-20.0302
 31
0.0
  0
LINE
  5
F3
  8
0
 10
111.3349
 20
-20.0302
 30
0.0
 11
111.5073
 21
-20.3289
 31
0.0
  0
LINE
  5
F4
  8
0
 10
111.5073
 20
-20.3289
 30
0.0
 11
111.6139
 21
-20.6569
 31
0.0
  0
LINE
  5
F5
  8
0
 10
111.6139
 20
-20.6569
 30
0.0
 11
111.65
 21
-21.0
 31
0.0
  0
LINE
  5
F6
  8
0
 10
111.65
 20
-21.0
 30
0.0
 11
111.6139
 21
-21.343
 31
0.0
  0
LINE
  5
F7
  8
0
 10
111.6139
 20
-21.343
 30
0.0
 11
111.5073
 21
-21.6711
 31
0.0
  0
LINE
  5
F8
  8
0
 10
111.5073
 20
-21.6711
 30
0.0
 11
111.3349
 21
-21.9698
 31
0.0
  0
LINE
  5
F9
  8
0
 10
111.3349
 20
-21.9698
 30
0.0
 11
111.1041
 21
-22.2262
 31
0.0
  0
LINE
  5
FA
  8
0
 10
111.1041
 20
-22.2262
 30
0.0
 11
110.825
 21
-22.4289
 31
0.0
  0
LINE
  5
FB
  8
0
 10
110.825
 20
-22.4289
 30
0.0
 11
110.5099
 21
-22.5692
 31
0.0
  0
LINE
  5
FC
  8
0
 10
110.5099
 20
-22.5692
 30
0.0
 11
110.1725
 21
-22.641
 31
0.0
  0
LINE
  5
FD
  8
0
 10
110.1725
 20
-22.641
 30
0.0
 11
109.8275
 21
-22.641
 31
0.0
  0
LINE
  5
FE
  8
0
 10
-110.1725
 20
-33.641
 30
0.0
 11
-110.5099
 21
-33.5692
 31
0.0
  0
LINE
  5
FF
  8
0
 10
-110.5099
 20
-33.5692
 30
0.0
 11
-110.825
 21
-33.4289
 31
0.0
  0
LINE
  5
100
  8
0
 10
-110.825
 20
-33.4289
 30
0.0
 11
-111.1041
 21
-33.2262
 31
0.0
  0
LINE
  5
101
  8
0
 10
-111.1041
 20
-33.2262
 30
0.0
 11
-111.3349
 21
-32.9698
 31
0.0
  0
LINE
  5
102
  8
0
 10
-111.3349
 20
-32.9698
 30
0.0
 11
-111.5073
 21
-32.6711
 31
0.0
  0
LINE
  5
103
  8
0
 10
-111.5073
 20
-32.6711
 30
0.0
 11
-111.6139
 21
-32.343
 31
0.0
  0
LINE
  5
104
  8
0
 10
-111.6139
 20
-32.343
 30
0.0
 11
-111.65
 21
-32.0
 31
0.0
  0
LINE
  5
105
  8
0
 10
-111.65
 20
-32.0
 30
0.0
 11
-111.6139
 21
-31.6569
 31
0.0
  0
LINE
  5
106
  8
0
 10
-111.6139
 20
-31.6569
 30
0.0
 11
-111.5073
 21
-31.3289
 31
0.0
  0
LINE
  5
107
  8
0
 10
-111.5073
 20
-31.3289
 30
0.0
 11
-111.3349
 21
-31.0302
 31
0.0
  0
LINE
  5
108
  8
0
 10
-111.3349
 20
-31.0302
 30
0.0
 11
-111.1041
 21
-30.7738
 31
0.0
  0
LINE
  5
109
  8
0
 10
-111.1041
 20
-30.7738
 30
0.0
 11
-110.825
 21
-30.571
 31
0.0
  0
LINE
  5
10A
  8
0
 10
-110.825
 20
-30.571
 30
0.0
 11
-110.5099
 21
-30.4308
 31
0.0
  0
LINE
  5
10B
  8
0
 10
-110.5099
 20
-30.4308
 30
0.0
 11
-110.1725
 21
-30.359
 31
0.0
  0
LINE
  5
10C
  8
0
 10
-110.1725
 20
-30.359
 30
0.0
 11
-109.8275
 21
-30.359
 31
0.0
  0
LINE
  5
10D
  8
0
 10
-109.8275
 20
-30.359
 30
0.0
 11
-109.4901
 21
-30.4308
 31
0.0
  0
LINE
  5
10E
  8
0
 10
-109.4901
 20
-30.4308
 30
0.0
 11
-109.175
 21
-30.571
 31
0.0
  0
LINE
  5
10F
  8
0
 10
-109.175
 20
-30.571
 30
0.0
 11
-108.8959
 21
-30.7738
 31
0.0
  0
LINE
  5
110
  8
0
 10
-108.8959
 20
-30.7738
 30
0.0
 11
-108.6651
 21
-31.0302
 31
0.0
  0
LINE
  5
111
  8
0
 10
-108.6651
 20
-31.0302
 30
0.0
 11
-108.4926
 21
-31.3289
 31
0.0
  0
LINE
  5
112
  8
0
 10
-108.4926
 20
-31.3289
 30
0.0
 11
-108.386
 21
-31.6569
 31
0.0
  0
LINE
  5
113
  8
0
 10
-108.386
 20
-31.6569
 30
0.0
 11
-108.35
 21
-32.0
 31
0.0
  0
LINE
  5
114
  8
0
 10
-108.35
 20
-32.0
 30
0.0
 11
-108.386
 21
-32.343
 31
0.0
  0
LINE
  5
115
  8
0
 10
-108.386
 20
-32.343
 30
0.0
 11
-108.4926
 21
-32.6711
 31
0.0
  0
LINE
  5
116
  8
0
 10
-108.4926
 20
-32.6711
 30
0.0
 11
-108.6651
 21
-32.9698
 31
0.0
  0
LINE
  5
117
  8
0
 10
-108.6651
 20
-32.9698
 30
0.0
 11
-108.8959
 21
-33.2262
 31
0.0
  0
LINE
  5
118
  8
0
 10
-108.8959
 20
-33.2262
 30
0.0
 11
-109.175
 21
-33.4289
 31
0.0
  0
LINE
  5
119
  8
0
 10
-109.175
 20
-33.4289
 30
0.0
 11
-109.4901
 21
-33.5692
 31
0.0
  0
LINE
  5
11A
  8
0
 10
-109.4901
 20
-33.5692
 30
0.0
 11
-109.8275
 21
-33.641
 31
0.0
  0
LINE
  5
11B
  8
0
 10
-109.8275
 20
-33.641
 30
0.0
 11
-110.1725
 21
-33.641
 31
0.0
  0
LINE
  5
11C
  8
0
 10
109.8275
 20
-33.641
 30
0.0
 11
109.4901
 21
-33.5692
 31
0.0
  0
LINE
  5
11D
  8
0
 10
109.4901
 20
-33.5692
 30
0.0
 11
109.175
 21
-33.4289
 31
0.0
  0
LINE
  5
11E
  8
0
 10
109.175
 20
-33.4289
 30
0.0
 11
108.8959
 21
-33.2262
 31
0.0
  0
LINE
  5
11F
  8
0
 10
108.8959
 20
-33.2262
 30
0.0
 11
108.6651
 21
-32.9698
 31
0.0
  0
LINE
  5
120
  8
0
 10
108.6651
 20
-32.9698
 30
0.0
 11
108.4926
 21
-32.6711
 31
0.0
  0
LINE
  5
121
  8
0
 10
108.4926
 20
-32.6711
 30
0.0
 11
108.386
 21
-32.343
 31
0.0
  0
LINE
  5
122
  8
0
 10
108.386
 20
-32.343
 30
0.0
 11
108.35
 21
-32.0
 31
0.0
  0
LINE
  5
123
  8
0
 10
108.35
 20
-32.0
 30
0.0
 11
108.386
 21
-31.6569
 31
0.0
  0
LINE
  5
124
  8
0
 10
108.386
 20
-31.6569
 30
0.0
 11
108.4926
 21
-31.3289
 31
0.0
  0
LINE
  5
125
  8
0
 10
108.4926
 20
-31.3289
 30
0.0
 11
108.6651
 21
-31.0302
 31
0.0
  0
LINE
  5
126
  8
0
 10
108.6651
 20
-31.0302
 30
0.0
 11
108.8959
 21
-30.7738
 31
0.0
  0
LINE
  5
127
  8
0
 10
108.8959
 20
-30.7738
 30
0.0
 11
109.175
 21
-30.571
 31
0.0
  0
LINE
  5
128
  8
0
 10
109.175
 20
-30.571
 30
0.0
 11
109.4901
 21
-30.4308
 31
0.0
  0
LINE
  5
129
  8
0
 10
109.4901
 20
-30.4308
 30
0.0
 11
109.8275
 21
-30.359
 31
0.0
  0
LINE
  5
12A
  8
0
 10
109.8275
 20
-30.359
 30
0.0
 11
110.1725
 21
-30.359
 31
0.0
  0
LINE
  5
12B
  8
0
 10
110.1725
 20
-30.359
 30
0.0
 11
110.5099
 21
-30.4308
 31
0.0
  0
LINE
  5
12C
  8
0
 10
110.5099
 20
-30.4308
 30
0.0
 11
110.825
 21
-30.571
 31
0.0
  0
LINE
  5
12D
  8
0
 10
110.825
 20
-30.571
 30
0.0
 11
111.1041
 21
-30.7738
 31
0.0
  0
LINE
  5
12E
  8
0
 10
111.1041
 20
-30.7738
 30
0.0
 11
111.3349
 21
-31.0302
 31
0.0
  0
LINE
  5
12F
  8
0
 10
111.3349
 20
-31.0302
 30
0.0
 11
111.5073
 21
-31.3289
 31
0.0
  0
LINE
  5
130
  8
0
 10
111.5073
 20
-31.3289
 30
0.0
 11
111.6139
 21
-31.6569
 31
0.0
  0
LINE
  5
131
  8
0
 10
111.6139
 20
-31.6569
 30
0.0
 11
111.65
 21
-32.0
 31
0.0
  0
LINE
  5
132
  8
0
 10
111.65
 20
-32.0
 30
0.0
 11
111.6139
 21
-32.343
 31
0.0
  0
LINE
  5
133
  8
0
 10
111.6139
 20
-32.343
 30
0.0
 11
111.5073
 21
-32.6711
 31
0.0
  0
LINE
  5
134
  8
0
 10
111.5073
 20
-32.6711
 30
0.0
 11
111.3349
 21
-32.9698
 31
0.0
  0
LINE
  5
135
  8
0
 10
111.3349
 20
-32.9698
 30
0.0
 11
111.1041
 21
-33.2262
 31
0.0
  0
LINE
  5
136
  8
0
 10
111.1041
 20
-33.2262
 30
0.0
 11
110.825
 21
-33.4289
 31
0.0
  0
LINE
  5
137
  8
0
 10
110.825
 20
-33.4289
 30
0.0
 11
110.5099
 21
-33.5692
 31
0.0
  0
LINE
  5
138
  8
0
 10
110.5099
 20
-33.5692
 30
0.0
 11
110.1725
 21
-33.641
 31
0.0
  0
LINE
  5
139
  8
0
 10
110.1725
 20
-33.641
 30
0.0
 11
109.8275
 21
-33.641
 31
0.0
  0
LINE
  5
13A
  8
0
 10
-146.8613
 20
-35.5863
 30
0.0
 11
-147.3725
 21
-35.4776
 31
0.0
  0
LINE
  5
13B
  8
0
 10
-147.3725
 20
-35.4776
 30
0.0
 11
-147.85
 21
-35.2651
 31
0.0
  0
LINE
  5
13C
  8
0
 10
-147.85
 20
-35.2651
 30
0.0
 11
-148.2728
 21
-34.9579
 31
0.0
  0
LINE
  5
13D
  8
0
 10
-148.2728
 20
-34.9579
 30
0.0
 11
-148.6225
 21
-34.5695
 31
0.0
  0
LINE
  5
13E
  8
0
 10
-148.6225
 20
-34.5695
 30
0.0
 11
-148.8839
 21
-34.1168
 31
0.0
  0
LINE
  5
13F
  8
0
 10
-148.8839
 20
-34.1168
 30
0.0
 11
-149.0454
 21
-33.6198
 31
0.0
  0
LINE
  5
140
  8
0
 10
-149.0454
 20
-33.6198
 30
0.0
 11
-149.1
 21
-33.1
 31
0.0
  0
LINE
  5
141
  8
0
 10
-149.1
 20
-33.1
 30
0.0
 11
-149.0454
 21
-32.5802
 31
0.0
  0
LINE
  5
142
  8
0
 10
-149.0454
 20
-32.5802
 30
0.0
 11
-148.8839
 21
-32.0831
 31
0.0
  0
LINE
  5
143
  8
0
 10
-148.8839
 20
-32.0831
 30
0.0
 11
-148.6225
 21
-31.6305
 31
0.0
  0
LINE
  5
144
  8
0
 10
-148.6225
 20
-31.6305
 30
0.0
 11
-148.2728
 21
-31.2421
 31
0.0
  0
LINE
  5
145
  8
0
 10
-148.2728
 20
-31.2421
 30
0.0
 11
-147.85
 21
-30.9349
 31
0.0
  0
LINE
  5
146
  8
0
 10
-147.85
 20
-30.9349
 30
0.0
 11
-147.3725
 21
-30.7224
 31
0.0
  0
LINE
  5
147
  8
0
 10
-147.3725
 20
-30.7224
 30
0.0
 11
-146.8613
 21
-30.6137
 31
0.0
  0
LINE
  5
148
  8
0
 10
-146.8613
 20
-30.6137
 30
0.0
 11
-146.3387
 21
-30.6137
 31
0.0
  0
LINE
  5
149
  8
0
 10
-146.3387
 20
-30.6137
 30
0.0
 11
-145.8275
 21
-30.7224
 31
0.0
  0
LINE
  5
14A
  8
0
 10
-145.8275
 20
-30.7224
 30
0.0
 11
-145.35
 21
-30.9349
 31
0.0
  0
LINE
  5
14B
  8
0
 10
-145.35
 20
-30.9349
 30
0.0
 11
-144.9272
 21
-31.2421
 31
0.0
  0
LINE
  5
14C
  8
0
 10
-144.9272
 20
-31.2421
 30
0.0
 11
-144.5775
 21
-31.6305
 31
0.0
  0
LINE
  5
14D
  8
0
 10
-144.5775
 20
-31.6305
 30
0.0
 11
-144.3161
 21
-32.0831
 31
0.0
  0
LINE
  5
14E
  8
0
 10
-144.3161
 20
-32.0831
 30
0.0
 11
-144.1546
 21
-32.5802
 31
0.0
  0
LINE
  5
14F
  8
0
 10
-144.1546
 20
-32.5802
 30
0.0
 11
-144.1
 21
-33.1
 31
0.0
  0
LINE
  5
150
  8
0
 10
-144.1
 20
-33.1
 30
0.0
 11
-144.1546
 21
-33.6198
 31
0.0
  0
LINE
  5
151
  8
0
 10
-144.1546
 20
-33.6198
 30
0.0
 11
-144.3161
 21
-34.1168
 31
0.0
  0
LINE
  5
152
  8
0
 10
-144.3161
 20
-34.1168
 30
0.0
 11
-144.5775
 21
-34.5695
 31
0.0
  0
LINE
  5
153
  8
0
 10
-144.5775
 20
-34.5695
 30
0.0
 11
-144.9272
 21
-34.9579
 31
0.0
  0
LINE
  5
154
  8
0
 10
-144.9272
 20
-34.9579
 30
0.0
 11
-145.35
 21
-35.2651
 31
0.0
  0
LINE
  5
155
  8
0
 10
-145.35
 20
-35.2651
 30
0.0
 11
-145.8275
 21
-35.4776
 31
0.0
  0
LINE
  5
156
  8
0
 10
-145.8275
 20
-35.4776
 30
0.0
 11
-146.3387
 21
-35.5863
 31
0.0
  0
LINE
  5
157
  8
0
 10
-146.3387
 20
-35.5863
 30
0.0
 11
-146.8613
 21
-35.5863
 31
0.0
  0
LINE
  5
158
  8
0
 10
-123.6613
 20
-35.5863
 30
0.0
 11
-124.1725
 21
-35.4776
 31
0.0
  0
LINE
  5
159
  8
0
 10
-124.1725
 20
-35.4776
 30
0.0
 11
-124.65
 21
-35.2651
 31
0.0
  0
LINE
  5
15A
  8
0
 10
-124.65
 20
-35.2651
 30
0.0
 11
-125.0728
 21
-34.9579
 31
0.0
  0
LINE
  5
15B
  8
0
 10
-125.0728
 20
-34.9579
 30
0.0
 11
-125.4225
 21
-34.5695
 31
0.0
  0
LINE
  5
15C
  8
0
 10
-125.4225
 20
-34.5695
 30
0.0
 11
-125.6839
 21
-34.1168
 31
0.0
  0
LINE
  5
15D
  8
0
 10
-125.6839
 20
-34.1168
 30
0.0
 11
-125.8454
 21
-33.6198
 31
0.0
  0
LINE
  5
15E
  8
0
 10
-125.8454
 20
-33.6198
 30
0.0
 11
-125.9
 21
-33.1
 31
0.0
  0
LINE
  5
15F
  8
0
 10
-125.9
 20
-33.1
 30
0.0
 11
-125.8454
 21
-32.5802
 31
0.0
  0
LINE
  5
160
  8
0
 10
-125.8454
 20
-32.5802
 30
0.0
 11
-125.6839
 21
-32.0831
 31
0.0
  0
LINE
  5
161
  8
0
 10
-125.6839
 20
-32.0831
 30
0.0
 11
-125.4225
 21
-31.6305
 31
0.0
  0
LINE
  5
162
  8
0
 10
-125.4225
 20
-31.6305
 30
0.0
 11
-125.0728
 21
-31.2421
 31
0.0
  0
LINE
  5
163
  8
0
 10
-125.0728
 20
-31.2421
 30
0.0
 11
-124.65
 21
-30.9349
 31
0.0
  0
LINE
  5
164
  8
0
 10
-124.65
 20
-30.9349
 30
0.0
 11
-124.1725
 21
-30.7224
 31
0.0
  0
LINE
  5
165
  8
0
 10
-124.1725
 20
-30.7224
 30
0.0
 11
-123.6613
 21
-30.6137
 31
0.0
  0
LINE
  5
166
  8
0
 10
-123.6613
 20
-30.6137
 30
0.0
 11
-123.1387
 21
-30.6137
 31
0.0
  0
LINE
  5
167
  8
0
 10
-123.1387
 20
-30.6137
 30
0.0
 11
-122.6275
 21
-30.7224
 31
0.0
  0
LINE
  5
168
  8
0
 10
-122.6275
 20
-30.7224
 30
0.0
 11
-122.15
 21
-30.9349
 31
0.0
  0
LINE
  5
169
  8
0
 10
-122.15
 20
-30.9349
 30
0.0
 11
-121.7272
 21
-31.2421
 31
0.0
  0
LINE
  5
16A
  8
0
 10
-121.7272
 20
-31.2421
 30
0.0
 11
-121.3775
 21
-31.6305
 31
0.0
  0
LINE
  5
16B
  8
0
 10
-121.3775
 20
-31.6305
 30
0.0
 11
-121.1161
 21
-32.0831
 31
0.0
  0
LINE
  5
16C
  8
0
 10
-121.1161
 20
-32.0831
 30
0.0
 11
-120.9546
 21
-32.5802
 31
0.0
  0
LINE
  5
16D
  8
0
 10
-120.9546
 20
-32.5802
 30
0.0
 11
-120.9
 21
-33.1
 31
0.0
  0
LINE
  5
16E
  8
0
 10
-120.9
 20
-33.1
 30
0.0
 11
-120.9546
 21
-33.6198
 31
0.0
  0
LINE
  5
16F
  8
0
 10
-120.9546
 20
-33.6198
 30
0.0
 11
-121.1161
 21
-34.1168
 31
0.0
  0
LINE
  5
170
  8
0
 10
-121.1161
 20
-34.1168
 30
0.0
 11
-121.3775
 21
-34.5695
 31
0.0
  0
LINE
  5
171
  8
0
 10
-121.3775
 20
-34.5695
 30
0.0
 11
-121.7272
 21
-34.9579
 31
0.0
  0
LINE
  5
172
  8
0
 10
-121.7272
 20
-34.9579
 30
0.0
 11
-122.15
 21
-35.2651
 31
0.0
  0
LINE
  5
173
  8
0
 10
-122.15
 20
-35.2651
 30
0.0
 11
-122.6275
 21
-35.4776
 31
0.0
  0
LINE
  5
174
  8
0
 10
-122.6275
 20
-35.4776
 30
0.0
 11
-123.1387
 21
-35.5863
 31
0.0
  0
LINE
  5
175
  8
0
 10
-123.1387
 20
-35.5863
 30
0.0
 11
-123.6613
 21
-35.5863
 31
0.0
  0
LINE
  5
176
  8
0
 10
123.1387
 20
-35.5863
 30
0.0
 11
122.6275
 21
-35.4776
 31
0.0
  0
LINE
  5
177
  8
0
 10
122.6275
 20
-35.4776
 30
0.0
 11
122.15
 21
-35.2651
 31
0.0
  0
LINE
  5
178
  8
0
 10
122.15
 20
-35.2651
 30
0.0
 11
121.7272
 21
-34.9579
 31
0.0
  0
LINE
  5
179
  8
0
 10
121.7272
 20
-34.9579
 30
0.0
 11
121.3775
 21
-34.5695
 31
0.0
  0
LINE
  5
17A
  8
0
 10
121.3775
 20
-34.5695
 30
0.0
 11
121.1161
 21
-34.1168
 31
0.0
  0
LINE
  5
17B
  8
0
 10
121.1161
 20
-34.1168
 30
0.0
 11
120.9546
 21
-33.6198
 31
0.0
  0
LINE
  5
17C
  8
0
 10
120.9546
 20
-33.6198
 30
0.0
 11
120.9
 21
-33.1
 31
0.0
  0
LINE
  5
17D
  8
0
 10
120.9
 20
-33.1
 30
0.0
 11
120.9546
 21
-32.5802
 31
0.0
  0
LINE
  5
17E
  8
0
 10
120.9546
 20
-32.5802
 30
0.0
 11
121.1161
 21
-32.0831
 31
0.0
  0
LINE
  5
17F
  8
0
 10
121.1161
 20
-32.0831
 30
0.0
 11
121.3775
 21
-31.6305
 31
0.0
  0
LINE
  5
180
  8
0
 10
121.3775
 20
-31.6305
 30
0.0
 11
121.7272
 21
-31.2421
 31
0.0
  0
LINE
  5
181
  8
0
 10
121.7272
 20
-31.2421
 30
0.0
 11
122.15
 21
-30.9349
 31
0.0
  0
LINE
  5
182
  8
0
 10
122.15
 20
-30.9349
 30
0.0
 11
122.6275
 21
-30.7224
 31
0.0
  0
LINE
  5
183
  8
0
 10
122.6275
 20
-30.7224
 30
0.0
 11
123.1387
 21
-30.6137
 31
0.0
  0
LINE
  5
184
  8
0
 10
123.1387
 20
-30.6137
 30
0.0
 11
123.6613
 21
-30.6137
 31
0.0
  0
LINE
  5
185
  8
0
 10
123.6613
 20
-30.6137
 30
0.0
 11
124.1725
 21
-30.7224
 31
0.0
  0
LINE
  5
186
  8
0
 10
124.1725
 20
-30.7224
 30
0.0
 11
124.65
 21
-30.9349
 31
0.0
  0
LINE
  5
187
  8
0
 10
124.65
 20
-30.9349
 30
0.0
 11
125.0728
 21
-31.2421
 31
0.0
  0
LINE
  5
188
  8
0
 10
125.0728
 20
-31.2421
 30
0.0
 11
125.4225
 21
-31.6305
 31
0.0
  0
LINE
  5
189
  8
0
 10
125.4225
 20
-31.6305
 30
0.0
 11
125.6839
 21
-32.0831
 31
0.0
  0
LINE
  5
18A
  8
0
 10
125.6839
 20
-32.0831
 30
0.0
 11
125.8454
 21
-32.5802
 31
0.0
  0
LINE
  5
18B
  8
0
 10
125.8454
 20
-32.5802
 30
0.0
 11
125.9
 21
-33.1
 31
0.0
  0
LINE
  5
18C
  8
0
 10
125.9
 20
-33.1
 30
0.0
 11
125.8454
 21
-33.6198
 31
0.0
  0
LINE
  5
18D
  8
0
 10
125.8454
 20
-33.6198
 30
0.0
 11
125.6839
 21
-34.1168
 31
0.0
  0
LINE
  5
18E
  8
0
 10
125.6839
 20
-34.1168
 30
0.0
 11
125.4225
 21
-34.5695
 31
0.0
  0
LINE
  5
18F
  8
0
 10
125.4225
 20
-34.5695
 30
0.0
 11
125.0728
 21
-34.9579
 31
0.0
  0
LINE
  5
190
  8
0
 10
125.0728
 20
-34.9579
 30
0.0
 11
124.65
 21
-35.2651
 31
0.0
  0
LINE
  5
191
  8
0
 10
124.65
 20
-35.2651
 30
0.0
 11
124.1725
 21
-35.4776
 31
0.0
  0
LINE
  5
192
  8
0
 10
124.1725
 20
-35.4776
 30
0.0
 11
123.6613
 21
-35.5863
 31
0.0
  0
LINE
  5
193
  8
0
 10
123.6613
 20
-35.5863
 30
0.0
 11
123.1387
 21
-35.5863
 31
0.0
  0
LINE
  5
194
  8
0
 10
146.3387
 20
-35.5863
 30
0.0
 11
145.8275
 21
-35.4776
 31
0.0
  0
LINE
  5
195
  8
0
 10
145.8275
 20
-35.4776
 30
0.0
 11
145.35
 21
-35.2651
 31
0.0
  0
LINE
  5
196
  8
0
 10
145.35
 20
-35.2651
 30
0.0
 11
144.9272
 21
-34.9579
 31
0.0
  0
LINE
  5
197
  8
0
 10
144.9272
 20
-34.9579
 30
0.0
 11
144.5775
 21
-34.5695
 31
0.0
  0
LINE
  5
198
  8
0
 10
144.5775
 20
-34.5695
 30
0.0
 11
144.3161
 21
-34.1168
 31
0.0
  0
LINE
  5
199
  8
0
 10
144.3161
 20
-34.1168
 30
0.0
 11
144.1546
 21
-33.6198
 31
0.0
  0
LINE
  5
19A
  8
0
 10
144.1546
 20
-33.6198
 30
0.0
 11
144.1
 21
-33.1
 31
0.0
  0
LINE
  5
19B
  8
0
 10
144.1
 20
-33.1
 30
0.0
 11
144.1546
 21
-32.5802
 31
0.0
  0
LINE
  5
19C
  8
0
 10
144.1546
 20
-32.5802
 30
0.0
 11
144.3161
 21
-32.0831
 31
0.0
  0
LINE
  5
19D
  8
0
 10
144.3161
 20
-32.0831
 30
0.0
 11
144.5775
 21
-31.6305
 31
0.0
  0
LINE
  5
19E
  8
0
 10
144.5775
 20
-31.6305
 30
0.0
 11
144.9272
 21
-31.2421
 31
0.0
  0
LINE
  5
19F
  8
0
 10
144.9272
 20
-31.2421
 30
0.0
 11
145.35
 21
-30.9349
 31
0.0
  0
LINE
  5
1A0
  8
0
 10
145.35
 20
-30.9349
 30
0.0
 11
145.8275
 21
-30.7224
 31
0.0
  0
LINE
  5
1A1
  8
0
 10
145.8275
 20
-30.7224
 30
0.0
 11
146.3387
 21
-30.6137
 31
0.0
  0
LINE
  5
1A2
  8
0
 10
146.3387
 20
-30.6137
 30
0.0
 11
146.8613
 21
-30.6137
 31
0.0
  0
LINE
  5
1A3
  8
0
 10
146.8613
 20
-30.6137
 30
0.0
 11
147.3725
 21
-30.7224
 31
0.0
  0
LINE
  5
1A4
  8
0
 10
147.3725
 20
-30.7224
 30
0.0
 11
147.85
 21
-30.9349
 31
0.0
  0
LINE
  5
1A5
  8
0
 10
147.85
 20
-30.9349
 30
0.0
 11
148.2728
 21
-31.2421
 31
0.0
  0
LINE
  5
1A6
  8
0
 10
148.2728
 20
-31.2421
 30
0.0
 11
148.6225
 21
-31.6305
 31
0.0
  0
LINE
  5
1A7
  8
0
 10
148.6225
 20
-31.6305
 30
0.0
 11
148.8839
 21
-32.0831
 31
0.0
  0
LINE
  5
1A8
  8
0
 10
148.8839
 20
-32.0831
 30
0.0
 11
149.0454
 21
-32.5802
 31
0.0
  0
LINE
  5
1A9
  8
0
 10
149.0454
 20
-32.5802
 30
0.0
 11
149.1
 21
-33.1
 31
0.0
  0
LINE
  5
1AA
  8
0
 10
149.1
 20
-33.1
 30
0.0
 11
149.0454
 21
-33.6198
 31
0.0
  0
LINE
  5
1AB
  8
0
 10
149.0454
 20
-33.6198
 30
0.0
 11
148.8839
 21
-34.1168
 31
0.0
  0
LINE
  5
1AC
  8
0
 10
148.8839
 20
-34.1168
 30
0.0
 11
148.6225
 21
-34.5695
 31
0.0
  0
LINE
  5
1AD
  8
0
 10
148.6225
 20
-34.5695
 30
0.0
 11
148.2728
 21
-34.9579
 31
0.0
  0
LINE
  5
1AE
  8
0
 10
148.2728
 20
-34.9579
 30
0.0
 11
147.85
 21
-35.2651
 31
0.0
  0
LINE
  5
1AF
  8
0
 10
147.85
 20
-35.2651
 30
0.0
 11
147.3725
 21
-35.4776
 31
0.0
  0
LINE
  5
1B0
  8
0
 10
147.3725
 20
-35.4776
 30
0.0
 11
146.8613
 21
-35.5863
 31
0.0
  0
LINE
  5
1B1
  8
0
 10
146.8613
 20
-35.5863
 30
0.0
 11
146.3387
 21
-35.5863
 31
0.0
  0
LINE
  5
1B2
  8
0
 10
129.3432
 20
-41.4918
 30
0.0
 11
129.0365
 21
-41.4266
 31
0.0
  0
LINE
  5
1B3
  8
0
 10
129.0365
 20
-41.4266
 30
0.0
 11
128.75
 21
-41.299
 31
0.0
  0
LINE
  5
1B4
  8
0
 10
128.75
 20
-41.299
 30
0.0
 11
128.4963
 21
-41.1147
 31
0.0
  0
LINE
  5
1B5
  8
0
 10
128.4963
 20
-41.1147
 30
0.0
 11
128.2865
 21
-40.8817
 31
0.0
  0
LINE
  5
1B6
  8
0
 10
128.2865
 20
-40.8817
 30
0.0
 11
128.1297
 21
-40.6101
 31
0.0
  0
LINE
  5
1B7
  8
0
 10
128.1297
 20
-40.6101
 30
0.0
 11
128.0328
 21
-40.3119
 31
0.0
  0
LINE
  5
1B8
  8
0
 10
128.0328
 20
-40.3119
 30
0.0
 11
128.0
 21
-40.0
 31
0.0
  0
LINE
  5
1B9
  8
0
 10
128.0
 20
-40.0
 30
0.0
 11
128.0328
 21
-39.6881
 31
0.0
  0
LINE
  5
1BA
  8
0
 10
128.0328
 20
-39.6881
 30
0.0
 11
128.1297
 21
-39.3899
 31
0.0
  0
LINE
  5
1BB
  8
0
 10
128.1297
 20
-39.3899
 30
0.0
 11
128.2865
 21
-39.1183
 31
0.0
  0
LINE
  5
1BC
  8
0
 10
128.2865
 20
-39.1183
 30
0.0
 11
128.4963
 21
-38.8853
 31
0.0
  0
LINE
  5
1BD
  8
0
 10
128.4963
 20
-38.8853
 30
0.0
 11
128.75
 21
-38.701
 31
0.0
  0
LINE
  5
1BE
  8
0
 10
128.75
 20
-38.701
 30
0.0
 11
129.0365
 21
-38.5734
 31
0.0
  0
LINE
  5
1BF
  8
0
 10
129.0365
 20
-38.5734
 30
0.0
 11
129.3432
 21
-38.5082
 31
0.0
  0
LINE
  5
1C0
  8
0
 10
129.3432
 20
-38.5082
 30
0.0
 11
129.6568
 21
-38.5082
 31
0.0
  0
LINE
  5
1C1
  8
0
 10
129.6568
 20
-38.5082
 30
0.0
 11
129.9635
 21
-38.5734
 31
0.0
  0
LINE
  5
1C2
  8
0
 10
129.9635
 20
-38.5734
 30
0.0
 11
130.25
 21
-38.701
 31
0.0
  0
LINE
  5
1C3
  8
0
 10
130.25
 20
-38.701
 30
0.0
 11
130.5037
 21
-38.8853
 31
0.0
  0
LINE
  5
1C4
  8
0
 10
130.5037
 20
-38.8853
 30
0.0
 11
130.7135
 21
-39.1183
 31
0.0
  0
LINE
  5
1C5
  8
0
 10
130.7135
 20
-39.1183
 30
0.0
 11
130.8703
 21
-39.3899
 31
0.0
  0
LINE
  5
1C6
  8
0
 10
130.8703
 20
-39.3899
 30
0.0
 11
130.9672
 21
-39.6881
 31
0.0
  0
LINE
  5
1C7
  8
0
 10
130.9672
 20
-39.6881
 30
0.0
 11
131.0
 21
-40.0
 31
0.0
  0
LINE
  5
1C8
  8
0
 10
131.0
 20
-40.0
 30
0.0
 11
130.9672
 21
-40.3119
 31
0.0
  0
LINE
  5
1C9
  8
0
 10
130.9672
 20
-40.3119
 30
0.0
 11
130.8703
 21
-40.6101
 31
0.0
  0
LINE
  5
1CA
  8
0
 10
130.8703
 20
-40.6101
 30
0.0
 11
130.7135
 21
-40.8817
 31
0.0
  0
LINE
  5
1CB
  8
0
 10
130.7135
 20
-40.8817
 30
0.0
 11
130.5037
 21
-41.1147
 31
0.0
  0
LINE
  5
1CC
  8
0
 10
130.5037
 20
-41.1147
 30
0.0
 11
130.25
 21
-41.299
 31
0.0
  0
LINE
  5
1CD
  8
0
 10
130.25
 20
-41.299
 30
0.0
 11
129.9635
 21
-41.4266
 31
0.0
  0
LINE
  5
1CE
  8
0
 10
129.9635
 20
-41.4266
 30
0.0
 11
129.6568
 21
-41.4918
 31
0.0
  0
LINE
  5
1CF
  8
0
 10
129.6568
 20
-41.4918
 30
0.0
 11
129.3432
 21
-41.4918
 31
0.0
  0
LINE
  5
1D0
  8
0
 10
140.3432
 20
-41.4918
 30
0.0
 11
140.0365
 21
-41.4266
 31
0.0
  0
LINE
  5
1D1
  8
0
 10
140.0365
 20
-41.4266
 30
0.0
 11
139.75
 21
-41.299
 31
0.0
  0
LINE
  5
1D2
  8
0
 10
139.75
 20
-41.299
 30
0.0
 11
139.4963
 21
-41.1147
 31
0.0
  0
LINE
  5
1D3
  8
0
 10
139.4963
 20
-41.1147
 30
0.0
 11
139.2865
 21
-40.8817
 31
0.0
  0
LINE
  5
1D4
  8
0
 10
139.2865
 20
-40.8817
 30
0.0
 11
139.1297
 21
-40.6101
 31
0.0
  0
LINE
  5
1D5
  8
0
 10
139.1297
 20
-40.6101
 30
0.0
 11
139.0328
 21
-40.3119
 31
0.0
  0
LINE
  5
1D6
  8
0
 10
139.0328
 20
-40.3119
 30
0.0
 11
139.0
 21
-40.0
 31
0.0
  0
LINE
  5
1D7
  8
0
 10
139.0
 20
-40.0
 30
0.0
 11
139.0328
 21
-39.6881
 31
0.0
  0
LINE
  5
1D8
  8
0
 10
139.0328
 20
-39.6881
 30
0.0
 11
139.1297
 21
-39.3899
 31
0.0
  0
LINE
  5
1D9
  8
0
 10
139.1297
 20
-39.3899
 30
0.0
 11
139.2865
 21
-39.1183
 31
0.0
  0
LINE
  5
1DA
  8
0
 10
139.2865
 20
-39.1183
 30
0.0
 11
139.4963
 21
-38.8853
 31
0.0
  0
LINE
  5
1DB
  8
0
 10
139.4963
 20
-38.8853
 30
0.0
 11
139.75
 21
-38.701
 31
0.0
  0
LINE
  5
1DC
  8
0
 10
139.75
 20
-38.701
 30
0.0
 11
140.0365
 21
-38.5734
 31
0.0
  0
LINE
  5
1DD
  8
0
 10
140.0365
 20
-38.5734
 30
0.0
 11
140.3432
 21
-38.5082
 31
0.0
  0
LINE
  5
1DE
  8
0
 10
140.3432
 20
-38.5082
 30
0.0
 11
140.6568
 21
-38.5082
 31
0.0
  0
LINE
  5
1DF
  8
0
 10
140.6568
 20
-38.5082
 30
0.0
 11
140.9635
 21
-38.5734
 31
0.0
  0
LINE
  5
1E0
  8
0
 10
140.9635
 20
-38.5734
 30
0.0
 11
141.25
 21
-38.701
 31
0.0
  0
LINE
  5
1E1
  8
0
 10
141.25
 20
-38.701
 30
0.0
 11
141.5037
 21
-38.8853
 31
0.0
  0
LINE
  5
1E2
  8
0
 10
141.5037
 20
-38.8853
 30
0.0
 11
141.7135
 21
-39.1183
 31
0.0
  0
LINE
  5
1E3
  8
0
 10
141.7135
 20
-39.1183
 30
0.0
 11
141.8703
 21
-39.3899
 31
0.0
  0
LINE
  5
1E4
  8
0
 10
141.8703
 20
-39.3899
 30
0.0
 11
141.9672
 21
-39.6881
 31
0.0
  0
LINE
  5
1E5
  8
0
 10
141.9672
 20
-39.6881
 30
0.0
 11
142.0
 21
-40.0
 31
0.0
  0
LINE
  5
1E6
  8
0
 10
142.0
 20
-40.0
 30
0.0
 11
141.9672
 21
-40.3119
 31
0.0
  0
LINE
  5
1E7
  8
0
 10
141.9672
 20
-40.3119
 30
0.0
 11
141.8703
 21
-40.6101
 31
0.0
  0
LINE
  5
1E8
  8
0
 10
141.8703
 20
-40.6101
 30
0.0
 11
141.7135
 21
-40.8817
 31
0.0
  0
LINE
  5
1E9
  8
0
 10
141.7135
 20
-40.8817
 30
0.0
 11
141.5037
 21
-41.1147
 31
0.0
  0
LINE
  5
1EA
  8
0
 10
141.5037
 20
-41.1147
 30
0.0
 11
141.25
 21
-41.299
 31
0.0
  0
LINE
  5
1EB
  8
0
 10
141.25
 20
-41.299
 30
0.0
 11
140.9635
 21
-41.4266
 31
0.0
  0
LINE
  5
1EC
  8
0
 10
140.9635
 20
-41.4266
 30
0.0
 11
140.6568
 21
-41.4918
 31
0.0
  0
LINE
  5
1ED
  8
0
 10
140.6568
 20
-41.4918
 30
0.0
 11
140.3432
 21
-41.4918
 31
0.0
  0
LINE
  5
1EE
  8
0
 10
-129.6568
 20
-41.4918
 30
0.0
 11
-129.9635
 21
-41.4266
 31
0.0
  0
LINE
  5
1EF
  8
0
 10
-129.9635
 20
-41.4266
 30
0.0
 11
-130.25
 21
-41.299
 31
0.0
  0
LINE
  5
1F0
  8
0
 10
-130.25
 20
-41.299
 30
0.0
 11
-130.5037
 21
-41.1147
 31
0.0
  0
LINE
  5
1F1
  8
0
 10
-130.5037
 20
-41.1147
 30
0.0
 11
-130.7135
 21
-40.8817
 31
0.0
  0
LINE
  5
1F2
  8
0
 10
-130.7135
 20
-40.8817
 30
0.0
 11
-130.8703
 21
-40.6101
 31
0.0
  0
LINE
  5
1F3
  8
0
 10
-130.8703
 20
-40.6101
 30
0.0
 11
-130.9672
 21
-40.3119
 31
0.0
  0
LINE
  5
1F4
  8
0
 10
-130.9672
 20
-40.3119
 30
0.0
 11
-131.0
 21
-40.0
 31
0.0
  0
LINE
  5
1F5
  8
0
 10
-131.0
 20
-40.0
 30
0.0
 11
-130.9672
 21
-39.6881
 31
0.0
  0
LINE
  5
1F6
  8
0
 10
-130.9672
 20
-39.6881
 30
0.0
 11
-130.8703
 21
-39.3899
 31
0.0
  0
LINE
  5
1F7
  8
0
 10
-130.8703
 20
-39.3899
 30
0.0
 11
-130.7135
 21
-39.1183
 31
0.0
  0
LINE
  5
1F8
  8
0
 10
-130.7135
 20
-39.1183
 30
0.0
 11
-130.5037
 21
-38.8853
 31
0.0
  0
LINE
  5
1F9
  8
0
 10
-130.5037
 20
-38.8853
 30
0.0
 11
-130.25
 21
-38.701
 31
0.0
  0
LINE
  5
1FA
  8
0
 10
-130.25
 20
-38.701
 30
0.0
 11
-129.9635
 21
-38.5734
 31
0.0
  0
LINE
  5
1FB
  8
0
 10
-129.9635
 20
-38.5734
 30
0.0
 11
-129.6568
 21
-38.5082
 31
0.0
  0
LINE
  5
1FC
  8
0
 10
-129.6568
 20
-38.5082
 30
0.0
 11
-129.3432
 21
-38.5082
 31
0.0
  0
LINE
  5
1FD
  8
0
 10
-129.3432
 20
-38.5082
 30
0.0
 11
-129.0365
 21
-38.5734
 31
0.0
  0
LINE
  5
1FE
  8
0
 10
-129.0365
 20
-38.5734
 30
0.0
 11
-128.75
 21
-38.701
 31
0.0
  0
LINE
  5
1FF
  8
0
 10
-128.75
 20
-38.701
 30
0.0
 11
-128.4963
 21
-38.8853
 31
0.0
  0
LINE
  5
200
  8
0
 10
-128.4963
 20
-38.8853
 30
0.0
 11
-128.2865
 21
-39.1183
 31
0.0
  0
LINE
  5
201
  8
0
 10
-128.2865
 20
-39.1183
 30
0.0
 11
-128.1297
 21
-39.3899
 31
0.0
  0
LINE
  5
202
  8
0
 10
-128.1297
 20
-39.3899
 30
0.0
 11
-128.0328
 21
-39.6881
 31
0.0
  0
LINE
  5
203
  8
0
 10
-128.0328
 20
-39.6881
 30
0.0
 11
-128.0
 21
-40.0
 31
0.0
  0
LINE
  5
204
  8
0
 10
-128.0
 20
-40.0
 30
0.0
 11
-128.0328
 21
-40.3119
 31
0.0
  0
LINE
  5
205
  8
0
 10
-128.0328
 20
-40.3119
 30
0.0
 11
-128.1297
 21
-40.6101
 31
0.0
  0
LINE
  5
206
  8
0
 10
-128.1297
 20
-40.6101
 30
0.0
 11
-128.2865
 21
-40.8817
 31
0.0
  0
LINE
  5
207
  8
0
 10
-128.2865
 20
-40.8817
 30
0.0
 11
-128.4963
 21
-41.1147
 31
0.0
  0
LINE
  5
208
  8
0
 10
-128.4963
 20
-41.1147
 30
0.0
 11
-128.75
 21
-41.299
 31
0.0
  0
LINE
  5
209
  8
0
 10
-128.75
 20
-41.299
 30
0.0
 11
-129.0365
 21
-41.4266
 31
0.0
  0
LINE
  5
20A
  8
0
 10
-129.0365
 20
-41.4266
 30
0.0
 11
-129.3432
 21
-41.4918
 31
0.0
  0
LINE
  5
20B
  8
0
 10
-129.3432
 20
-41.4918
 30
0.0
 11
-129.6568
 21
-41.4918
 31
0.0
  0
LINE
  5
20C
  8
0
 10
-140.6568
 20
-41.4918
 30
0.0
 11
-140.9635
 21
-41.4266
 31
0.0
  0
LINE
  5
20D
  8
0
 10
-140.9635
 20
-41.4266
 30
0.0
 11
-141.25
 21
-41.299
 31
0.0
  0
LINE
  5
20E
  8
0
 10
-141.25
 20
-41.299
 30
0.0
 11
-141.5037
 21
-41.1147
 31
0.0
  0
LINE
  5
20F
  8
0
 10
-141.5037
 20
-41.1147
 30
0.0
 11
-141.7135
 21
-40.8817
 31
0.0
  0
LINE
  5
210
  8
0
 10
-141.7135
 20
-40.8817
 30
0.0
 11
-141.8703
 21
-40.6101
 31
0.0
  0
LINE
  5
211
  8
0
 10
-141.8703
 20
-40.6101
 30
0.0
 11
-141.9672
 21
-40.3119
 31
0.0
  0
LINE
  5
212
  8
0
 10
-141.9672
 20
-40.3119
 30
0.0
 11
-142.0
 21
-40.0
 31
0.0
  0
LINE
  5
213
  8
0
 10
-142.0
 20
-40.0
 30
0.0
 11
-141.9672
 21
-39.6881
 31
0.0
  0
LINE
  5
214
  8
0
 10
-141.9672
 20
-39.6881
 30
0.0
 11
-141.8703
 21
-39.3899
 31
0.0
  0
LINE
  5
215
  8
0
 10
-141.8703
 20
-39.3899
 30
0.0
 11
-141.7135
 21
-39.1183
 31
0.0
  0
LINE
  5
216
  8
0
 10
-141.7135
 20
-39.1183
 30
0.0
 11
-141.5037
 21
-38.8853
 31
0.0
  0
LINE
  5
217
  8
0
 10
-141.5037
 20
-38.8853
 30
0.0
 11
-141.25
 21
-38.701
 31
0.0
  0
LINE
  5
218
  8
0
 10
-141.25
 20
-38.701
 30
0.0
 11
-140.9635
 21
-38.5734
 31
0.0
  0
LINE
  5
219
  8
0
 10
-140.9635
 20
-38.5734
 30
0.0
 11
-140.6568
 21
-38.5082
 31
0.0
  0
LINE
  5
21A
  8
0
 10
-140.6568
 20
-38.5082
 30
0.0
 11
-140.3432
 21
-38.5082
 31
0.0
  0
LINE
  5
21B
  8
0
 10
-140.3432
 20
-38.5082
 30
0.0
 11
-140.0365
 21
-38.5734
 31
0.0
  0
LINE
  5
21C
  8
0
 10
-140.0365
 20
-38.5734
 30
0.0
 11
-139.75
 21
-38.701
 31
0.0
  0
LINE
  5
21D
  8
0
 10
-139.75
 20
-38.701
 30
0.0
 11
-139.4963
 21
-38.8853
 31
0.0
  0
LINE
  5
21E
  8
0
 10
-139.4963
 20
-38.8853
 30
0.0
 11
-139.2865
 21
-39.1183
 31
0.0
  0
LINE
  5
21F
  8
0
 10
-139.2865
 20
-39.1183
 30
0.0
 11
-139.1297
 21
-39.3899
 31
0.0
  0
LINE
  5
220
  8
0
 10
-139.1297
 20
-39.3899
 30
0.0
 11
-139.0328
 21
-39.6881
 31
0.0
  0
LINE
  5
221
  8
0
 10
-139.0328
 20
-39.6881
 30
0.0
 11
-139.0
 21
-40.0
 31
0.0
  0
LINE
  5
222
  8
0
 10
-139.0
 20
-40.0
 30
0.0
 11
-139.0328
 21
-40.3119
 31
0.0
  0
LINE
  5
223
  8
0
 10
-139.0328
 20
-40.3119
 30
0.0
 11
-139.1297
 21
-40.6101
 31
0.0
  0
LINE
  5
224
  8
0
 10
-139.1297
 20
-40.6101
 30
0.0
 11
-139.2865
 21
-40.8817
 31
0.0
  0
LINE
  5
225
  8
0
 10
-139.2865
 20
-40.8817
 30
0.0
 11
-139.4963
 21
-41.1147
 31
0.0
  0
LINE
  5
226
  8
0
 10
-139.4963
 20
-41.1147
 30
0.0
 11
-139.75
 21
-41.299
 31
0.0
  0
LINE
  5
227
  8
0
 10
-139.75
 20
-41.299
 30
0.0
 11
-140.0365
 21
-41.4266
 31
0.0
  0
LINE
  5
228
  8
0
 10
-140.0365
 20
-41.4266
 30
0.0
 11
-140.3432
 21
-41.4918
 31
0.0
  0
LINE
  5
229
  8
0
 10
-140.3432
 20
-41.4918
 30
0.0
 11
-140.6568
 21
-41.4918
 31
0.0
  0
LINE
  5
22A
  8
0
 10
-0.156784
 20
-47.4918
 30
0.0
 11
-0.463516
 21
-47.4266
 31
0.0
  0
LINE
  5
22B
  8
0
 10
-0.463516
 20
-47.4266
 30
0.0
 11
-0.75
 21
-47.299
 31
0.0
  0
LINE
  5
22C
  8
0
 10
-0.75
 20
-47.299
 30
0.0
 11
-1.00369
 21
-47.1147
 31
0.0
  0
LINE
  5
22D
  8
0
 10
-1.00369
 20
-47.1147
 30
0.0
 11
-1.21352
 21
-46.8817
 31
0.0
  0
LINE
  5
22E
  8
0
 10
-1.21352
 20
-46.8817
 30
0.0
 11
-1.37032
 21
-46.6101
 31
0.0
  0
LINE
  5
22F
  8
0
 10
-1.37032
 20
-46.6101
 30
0.0
 11
-1.46721
 21
-46.3119
 31
0.0
  0
LINE
  5
230
  8
0
 10
-1.46721
 20
-46.3119
 30
0.0
 11
-1.5
 21
-46.0
 31
0.0
  0
LINE
  5
231
  8
0
 10
-1.5
 20
-46.0
 30
0.0
 11
-1.46721
 21
-45.6881
 31
0.0
  0
LINE
  5
232
  8
0
 10
-1.46721
 20
-45.6881
 30
0.0
 11
-1.37032
 21
-45.3899
 31
0.0
  0
LINE
  5
233
  8
0
 10
-1.37032
 20
-45.3899
 30
0.0
 11
-1.21352
 21
-45.1183
 31
0.0
  0
LINE
  5
234
  8
0
 10
-1.21352
 20
-45.1183
 30
0.0
 11
-1.00369
 21
-44.8853
 31
0.0
  0
LINE
  5
235
  8
0
 10
-1.00369
 20
-44.8853
 30
0.0
 11
-0.749985
 21
-44.701
 31
0.0
  0
LINE
  5
236
  8
0
 10
-0.749985
 20
-44.701
 30
0.0
 11
-0.463516
 21
-44.5734
 31
0.0
  0
LINE
  5
237
  8
0
 10
-0.463516
 20
-44.5734
 30
0.0
 11
-0.156784
 21
-44.5082
 31
0.0
  0
LINE
  5
238
  8
0
 10
-0.156784
 20
-44.5082
 30
0.0
 11
0.156784
 21
-44.5082
 31
0.0
  0
LINE
  5
239
  8
0
 10
0.156784
 20
-44.5082
 30
0.0
 11
0.463516
 21
-44.5734
 31
0.0
  0
LINE
  5
23A
  8
0
 10
0.463516
 20
-44.5734
 30
0.0
 11
0.75
 21
-44.701
 31
0.0
  0
LINE
  5
23B
  8
0
 10
0.75
 20
-44.701
 30
0.0
 11
1.00369
 21
-44.8853
 31
0.0
  0
LINE
  5
23C
  8
0
 10
1.00369
 20
-44.8853
 30
0.0
 11
1.21352
 21
-45.1183
 31
0.0
  0
LINE
  5
23D
  8
0
 10
1.21352
 20
-45.1183
 30
0.0
 11
1.37032
 21
-45.3899
 31
0.0
  0
LINE
  5
23E
  8
0
 10
1.37032
 20
-45.3899
 30
0.0
 11
1.46721
 21
-45.6881
 31
0.0
  0
LINE
  5
23F
  8
0
 10
1.46721
 20
-45.6881
 30
0.0
 11
1.5
 21
-46.0
 31
0.0
  0
LINE
  5
240
  8
0
 10
1.5
 20
-46.0
 30
0.0
 11
1.46721
 21
-46.3119
 31
0.0
  0
LINE
  5
241
  8
0
 10
1.46721
 20
-46.3119
 30
0.0
 11
1.37032
 21
-46.6101
 31
0.0
  0
LINE
  5
242
  8
0
 10
1.37032
 20
-46.6101
 30
0.0
 11
1.21352
 21
-46.8817
 31
0.0
  0
LINE
  5
243
  8
0
 10
1.21352
 20
-46.8817
 30
0.0
 11
1.00369
 21
-47.1147
 31
0.0
  0
LINE
  5
244
  8
0
 10
1.00369
 20
-47.1147
 30
0.0
 11
0.75
 21
-47.299
 31
0.0
  0
LINE
  5
245
  8
0
 10
0.75
 20
-47.299
 30
0.0
 11
0.463516
 21
-47.4266
 31
0.0
  0
LINE
  5
246
  8
0
 10
0.463516
 20
-47.4266
 30
0.0
 11
0.156784
 21
-47.4918
 31
0.0
  0
LINE
  5
247
  8
0
 10
0.156784
 20
-47.4918
 30
0.0
 11
-0.156784
 21
-47.4918
 31
0.0
  0
VIEWPORT
  5
2A2
 67
     1
  8
0
 10
0.0
 20
0.0
 30
0.0
 40
10.0
 41
10.0
 68
     0
 69
     1
1001
VD_INVISIBLE_NOT_FOR_READ
1000
VD_INVISIBLE_NOT_FOR_READ
1001
ACAD
1000
MVIEW
1002
{
1070
    16
1010
0.0
1020
0.0
1030
0.0
1020
0.0
1030
0.0
1010
0.0
1020
0.0
1030
1.0
1020
0.0
1030
1.0
1040
6.2831853071796
1040
10.0
1040
0.0
1040
0.0
1040
0.0
1040
0.0
1040
0.0
1070
     0
1070
   100
1070
     0
1070
     1
1070
     0
1070
     0
1070
     0
1070
     0
1040
0.0
1040
0.0
1040
0.0
1040
1.0
1040
1.0
1040
0.0
1040
0.0
1070
     0
1002
{
1002
}
1002
}
  0
VIEWPORT
  5
2A3
 67
     1
  8
0
 10
0.0
 20
0.0
 30
0.0
 40
10.0
 41
10.0
 68
     0
 69
     2
1001
VD_INVISIBLE_NOT_FOR_READ
1000
VD_INVISIBLE_NOT_FOR_READ
1001
ACAD
1000
MVIEW
1002
{
1070
    16
1010
0.0
1020
0.0
1030
0.0
1020
0.0
1030
0.0
1010
0.0
1020
0.0
1030
1.0
1020
0.0
1030
1.0
1040
6.2831853071796
1040
10.0
1040
0.0
1040
0.0
1040
0.0
1040
0.0
1040
0.0
1070
     0
1070
   100
1070
     0
1070
     1
1070
     0
1070
     0
1070
     0
1070
     0
1040
0.0
1040
0.0
1040
0.0
1040
1.0
1040
1.0
1040
0.0
1040
0.0
1070
     0
1002
{
1002
}
1002
}
  0
ENDSEC
  0
EOF
